<svg width="57" height="46" viewBox="0 0 57 46" fill="none" xmlns="http://www.w3.org/2000/svg">
<path d="M28.5 6.38892H23.75V12.7778H28.5V6.38892Z" fill="#D80027"/>
<path d="M33.25 10.2222H0V34.4999H33.25V10.2222Z" fill="#E4F1FB"/>
<path d="M50.6667 20.4444L45.9166 10.2222H28.5V34.4999H57V22.9999L50.6667 20.4444Z" fill="#C9E3F7"/>
<path d="M45.5936 20.4444L42.6248 14.0554H33.25V20.4444H45.5936Z" fill="#3C5D76"/>
<path d="M57 30.6667H0V34.5001H57V30.6667Z" fill="#C9E3F7"/>
<path d="M57 26.8333H52.25V31.9444H57V26.8333Z" fill="#A2001D"/>
<path d="M57 30.6667H28.5V34.5001H57V30.6667Z" fill="#93C7EF"/>
<path d="M42.7494 39.6112C46.2472 39.6112 49.0827 37.3228 49.0827 34.5C49.0827 31.6772 46.2472 29.3889 42.7494 29.3889C39.2516 29.3889 36.416 31.6772 36.416 34.5C36.416 37.3228 39.2516 39.6112 42.7494 39.6112Z" fill="#1E2E3B"/>
<path d="M12.6664 39.6112C16.1642 39.6112 18.9997 37.3228 18.9997 34.5C18.9997 31.6772 16.1642 29.3889 12.6664 29.3889C9.16854 29.3889 6.33301 31.6772 6.33301 34.5C6.33301 37.3228 9.16854 39.6112 12.6664 39.6112Z" fill="#1E2E3B"/>
<path d="M12.6666 37.0556C14.4155 37.0556 15.8332 35.9115 15.8332 34.5001C15.8332 33.0887 14.4155 31.9446 12.6666 31.9446C10.9177 31.9446 9.5 33.0887 9.5 34.5001C9.5 35.9115 10.9177 37.0556 12.6666 37.0556Z" fill="#78B9EB"/>
<path d="M42.7496 37.0556C44.4985 37.0556 45.9162 35.9115 45.9162 34.5001C45.9162 33.0887 44.4985 31.9446 42.7496 31.9446C41.0008 31.9446 39.583 33.0887 39.583 34.5001C39.583 35.9115 41.0008 37.0556 42.7496 37.0556Z" fill="#5A8BB0"/>
<path d="M20.5833 17.8888H15.8333V14.0554H9.49993V17.8888H4.75V22.9999H9.49993V26.8333H15.8333V22.9999H20.5833V17.8888Z" fill="#D80027"/>
</svg>
