<svg width="66" height="66" viewBox="0 0 66 66" fill="none" xmlns="http://www.w3.org/2000/svg">
<path d="M21.2218 17.8936C21.2351 17.2892 21.3775 16.7167 21.6241 16.2034C21.5801 16.2007 21.5363 16.1967 21.4915 16.1967H19.3622H15.6627H15.081C14.0552 16.1967 13.1996 16.9249 13.0029 17.8926C13.0155 17.8931 13.0243 17.8934 13.0243 17.8934H21.2218V17.8936V17.8936Z" fill="#2B3237"/>
<path d="M21.2193 17.9863C21.2193 17.9552 21.2209 17.9244 21.2217 17.8934H13.0243C13.0243 17.8934 13.0154 17.893 13.0029 17.8926C12.6988 17.8805 8.84949 17.7842 7.14905 20.464C5.37796 23.255 4.90417 25.4709 2.25083 29.5664C0.256086 32.5641 0.0597266 33.9531 0.0597266 35.7458C0.0597266 37.5388 0 38.7837 0 42.0398C0 45.2958 2.0344 46.5976 4.93178 46.5976C5.43271 46.5976 6.38866 46.5976 7.62638 46.5976C7.71244 43.1971 10.4936 40.4665 13.9149 40.4665C17.3361 40.4665 20.1174 43.1971 20.2035 46.5976C20.5516 46.5976 20.8913 46.5976 21.2193 46.5976V17.9863ZM18.8596 33.6984C18.8596 33.6984 8.48166 33.6649 7.54273 33.6618C6.60381 33.6588 5.48136 32.5643 6.33439 30.6858C7.47996 28.3682 8.81032 25.8507 9.38302 24.948C10.3918 23.3584 12.73 23.4837 12.73 23.4837H18.8988L18.8596 33.6984Z" fill="#D43D21"/>
<path d="M13.9152 40.4172C10.4671 40.4172 7.66396 43.1692 7.57742 46.5964C7.57613 46.6506 7.57324 46.7046 7.57324 46.7592C7.57324 50.2619 10.4125 53.1011 13.9152 53.1011C17.4179 53.1011 20.2571 50.2619 20.2571 46.7592C20.2571 46.7046 20.2544 46.6506 20.2531 46.5964C20.1662 43.1692 17.3633 40.4172 13.9152 40.4172ZM17.2864 46.7592C17.2864 48.621 15.7771 50.1302 13.9152 50.1302C12.0534 50.1302 10.544 48.621 10.544 46.7592C10.544 44.8974 12.0534 43.388 13.9152 43.388C15.7771 43.388 17.2864 44.8974 17.2864 46.7592Z" fill="#1B2327"/>
<path d="M13.9148 50.2111C15.8213 50.2111 17.3668 48.6656 17.3668 46.7592C17.3668 44.8527 15.8213 43.3073 13.9148 43.3073C12.0084 43.3073 10.4629 44.8527 10.4629 46.7592C10.4629 48.6656 12.0084 50.2111 13.9148 50.2111Z" fill="#2B3237"/>
<path d="M9.38296 24.9479C8.81026 25.8506 7.47974 28.3681 6.33433 30.6857C5.4813 32.5642 6.60391 33.6589 7.54267 33.6617C8.4816 33.6648 18.8596 33.6983 18.8596 33.6983L18.8988 23.4837H12.7297C12.7297 23.4837 10.3917 23.3583 9.38296 24.9479Z" fill="white"/>
<path d="M61.8785 13.8649H25.3406C23.7031 13.8649 22.2888 14.8199 21.6239 16.2032C21.3773 16.7165 21.0586 17.6736 21.0586 17.9863V46.5976L43.9803 46.6159C43.9803 46.6097 43.9798 46.6037 43.9798 46.5975C43.9798 43.1221 46.7969 40.3048 50.2725 40.3048C53.7478 40.3048 56.5651 43.1219 56.5651 46.5975C56.5651 46.6071 56.5645 46.6164 56.5643 46.626L61.8785 46.6304C64.1546 46.6304 65.9998 44.7853 65.9998 42.5091V17.9863C65.9998 15.7101 64.1546 13.8649 61.8785 13.8649ZM48.9211 29.1175C48.9211 29.9891 48.2146 30.6956 47.3428 30.6956H44.8373V33.201C44.8373 34.0729 44.1309 34.7795 43.2591 34.7795H42.2039C41.3322 34.7795 40.6255 34.0729 40.6255 33.201V30.6956H38.1199C37.2487 30.6956 36.5418 29.9891 36.5418 29.1175V28.062C36.5418 27.1905 37.2487 26.4839 38.1199 26.4839H40.6253V23.9786C40.6253 23.1068 41.3321 22.4003 42.2037 22.4003H43.2589C44.1307 22.4003 44.8372 23.1068 44.8372 23.9786V26.4839H47.3426C48.2145 26.4839 48.9209 27.1905 48.9209 28.062V29.1175H48.9211V29.1175Z" fill="#E74424"/>
<path d="M50.2726 40.2556C46.7699 40.2556 43.9307 43.0949 43.9307 46.5976C43.9307 46.6038 43.9311 46.6099 43.9311 46.6162C43.9413 50.1102 46.7762 52.9395 50.2726 52.9395C53.7655 52.9395 56.5982 50.1158 56.6137 46.6263C56.6139 46.6167 56.6145 46.6072 56.6145 46.5976C56.6145 43.0949 53.7751 40.2556 50.2726 40.2556ZM50.2726 49.9686C48.4108 49.9686 46.9014 48.4594 46.9014 46.5976C46.9014 44.7358 48.4108 43.2264 50.2726 43.2264C52.1344 43.2264 53.6438 44.7358 53.6438 46.5976C53.6438 48.4594 52.1344 49.9686 50.2726 49.9686Z" fill="#1B2327"/>
<path d="M50.2723 50.0494C52.1787 50.0494 53.7242 48.5039 53.7242 46.5974C53.7242 44.691 52.1787 43.1455 50.2723 43.1455C48.3658 43.1455 46.8203 44.691 46.8203 46.5974C46.8203 48.5039 48.3658 50.0494 50.2723 50.0494Z" fill="#2B3237"/>
<path d="M19.3626 14.3541C19.3626 13.5502 18.5345 12.8987 17.5128 12.8987C16.4912 12.8987 15.6631 13.5504 15.6631 14.3541V16.1967H19.3626V14.3541Z" fill="#E74424"/>
<path d="M47.343 26.484H44.8376V23.9787C44.8376 23.1068 44.1311 22.4004 43.2593 22.4004H42.2041C41.3325 22.4004 40.6257 23.1068 40.6257 23.9787V26.484H38.1201C37.2489 26.484 36.542 27.1906 36.542 28.0621V29.1175C36.542 29.9892 37.2489 30.6956 38.1201 30.6956H40.6256V33.2011C40.6256 34.0729 41.3323 34.7795 42.204 34.7795H43.2591C44.131 34.7795 44.8374 34.0729 44.8374 33.2011V30.6956H47.3429C48.2147 30.6956 48.9211 29.9892 48.9211 29.1175V28.0621C48.9213 27.1907 48.2149 26.484 47.343 26.484Z" fill="#F7F1E6"/>
</svg>
