<svg width="42" height="36" viewBox="0 0 42 36" fill="none" xmlns="http://www.w3.org/2000/svg">
<g clip-path="url(#clip0_64_1947)">
<path d="M36.4932 0.827148H5.50705C5.12405 0.827148 4.81348 1.08596 4.81348 1.40513V9.86166C4.81348 10.1808 5.12405 10.4396 5.50705 10.4396H36.4932C36.8762 10.4396 37.1868 10.1808 37.1868 9.86166V1.40513C37.1868 1.08596 36.8763 0.827148 36.4932 0.827148Z" fill="#F95428"/>
<path d="M36.493 10.4397H5.50781V34.6027H36.493V10.4397Z" fill="#F2F2F2"/>
<path d="M6.9686 9.86166V1.40513C6.9686 1.08596 7.27917 0.827148 7.66218 0.827148H5.50705C5.12405 0.827148 4.81348 1.08596 4.81348 1.40513V9.86166C4.81348 10.1808 5.12405 10.4396 5.50705 10.4396H7.66218C7.27917 10.4396 6.9686 10.1808 6.9686 9.86166Z" fill="#E54728"/>
<path d="M7.66294 10.4399H5.50781V34.6029H7.66294V10.4399Z" fill="#E6E6E6"/>
<path d="M12.8671 4.34253C13.7233 4.34253 14.4168 4.92133 14.4168 5.63397C14.4168 6.34662 13.7233 6.9246 12.8671 6.9246C12.0109 6.9246 11.3184 6.34662 11.3184 5.63397C11.3184 4.92133 12.0109 4.34253 12.8671 4.34253Z" fill="#E6E6E6"/>
<path d="M29.1347 4.34253C29.9899 4.34253 30.6844 4.92133 30.6844 5.63397C30.6844 6.34662 29.9899 6.9246 29.1347 6.9246C28.2785 6.9246 27.5859 6.34662 27.5859 5.63397C27.5859 4.92133 28.2785 4.34253 29.1347 4.34253Z" fill="#E6E6E6"/>
<path d="M36.4929 0.215088H5.5067C4.71904 0.215088 4.07812 0.749111 4.07812 1.40557V9.86183C4.07812 10.2945 4.35744 10.6728 4.77309 10.8813V34.6028C4.77309 34.9409 5.10204 35.215 5.50777 35.215H36.4928C36.8985 35.215 37.2274 34.9409 37.2274 34.6028V10.8809C37.6423 10.6723 37.9213 10.2941 37.9213 9.86183V1.40557C37.9214 0.749111 37.2805 0.215088 36.4929 0.215088ZM35.7581 33.9906H6.24252V11.0523H35.7581V33.9906ZM36.452 9.82778H5.54755V1.43961H36.452V9.82778Z" fill="#333333"/>
<path d="M12.8668 7.53706C14.1263 7.53706 15.1508 6.68325 15.1508 5.6338C15.1508 4.58428 14.1263 3.73047 12.8668 3.73047C11.6076 3.73047 10.583 4.58428 10.583 5.6338C10.5829 6.68325 11.6075 7.53706 12.8668 7.53706ZM12.8668 4.95499C13.316 4.95499 13.6814 5.25946 13.6814 5.6338C13.6814 6.008 13.316 6.31254 12.8668 6.31254C12.4178 6.31254 12.0524 6.00807 12.0524 5.6338C12.0524 5.25953 12.4177 4.95499 12.8668 4.95499Z" fill="#333333"/>
<path d="M29.1336 7.53706C30.393 7.53706 31.4176 6.68325 31.4176 5.6338C31.4176 4.58428 30.393 3.73047 29.1336 3.73047C27.8742 3.73047 26.8496 4.58428 26.8496 5.6338C26.8497 6.68325 27.8743 7.53706 29.1336 7.53706ZM29.1336 4.95499C29.5827 4.95499 29.9482 5.25946 29.9482 5.6338C29.9482 6.008 29.5828 6.31254 29.1336 6.31254C28.6845 6.31254 28.319 6.00807 28.319 5.6338C28.3191 5.25953 28.6845 4.95499 29.1336 4.95499Z" fill="#333333"/>
<path d="M16.2972 14.234H25.7034C26.1091 14.234 26.438 13.9599 26.438 13.6217C26.438 13.2836 26.1091 13.0095 25.7034 13.0095H16.2972C15.8914 13.0095 15.5625 13.2836 15.5625 13.6217C15.5625 13.9599 15.8913 14.234 16.2972 14.234Z" fill="#333333"/>
<path d="M11.3011 22.8402C11.7068 22.8402 12.0358 22.5661 12.0358 22.228C12.0358 21.8898 11.7068 21.6157 11.3011 21.6157C10.8953 21.6157 10.5664 21.8898 10.5664 22.228C10.5664 22.5661 10.8953 22.8402 11.3011 22.8402Z" fill="#333333"/>
<path d="M14.2405 22.8402C14.6463 22.8402 14.9752 22.5661 14.9752 22.228C14.9752 21.8898 14.6463 21.6157 14.2405 21.6157C13.8348 21.6157 13.5059 21.8898 13.5059 22.228C13.5059 22.5661 13.8348 22.8402 14.2405 22.8402Z" fill="#333333"/>
<path d="M17.179 22.8402C17.5848 22.8402 17.9137 22.5661 17.9137 22.228C17.9137 21.8898 17.5848 21.6157 17.179 21.6157C16.7733 21.6157 16.4443 21.8898 16.4443 22.228C16.4443 22.5661 16.7733 22.8402 17.179 22.8402Z" fill="#333333"/>
<path d="M20.1185 22.8402C20.5242 22.8402 20.8531 22.5661 20.8531 22.228C20.8531 21.8898 20.5242 21.6157 20.1185 21.6157C19.7127 21.6157 19.3838 21.8898 19.3838 22.228C19.3838 22.5661 19.7127 22.8402 20.1185 22.8402Z" fill="#333333"/>
<path d="M23.0569 22.8402C23.4627 22.8402 23.7916 22.5661 23.7916 22.228C23.7916 21.8898 23.4627 21.6157 23.0569 21.6157C22.6512 21.6157 22.3223 21.8898 22.3223 22.228C22.3223 22.5661 22.6512 22.8402 23.0569 22.8402Z" fill="#333333"/>
<path d="M27.7591 22.8402C28.1648 22.8402 28.4938 22.5661 28.4938 22.228C28.4938 21.8898 28.1648 21.6157 27.7591 21.6157C27.3533 21.6157 27.0244 21.8898 27.0244 22.228C27.0244 22.5661 27.3533 22.8402 27.7591 22.8402Z" fill="#333333"/>
<path d="M30.6976 22.8402C31.1033 22.8402 31.4322 22.5661 31.4322 22.228C31.4322 21.8898 31.1033 21.6157 30.6976 21.6157C30.2918 21.6157 29.9629 21.8898 29.9629 22.228C29.9629 22.5661 30.2918 22.8402 30.6976 22.8402Z" fill="#333333"/>
<path d="M11.3011 26.0099C11.7068 26.0099 12.0358 25.7357 12.0358 25.3976C12.0358 25.0595 11.7068 24.7854 11.3011 24.7854C10.8953 24.7854 10.5664 25.0595 10.5664 25.3976C10.5664 25.7357 10.8953 26.0099 11.3011 26.0099Z" fill="#333333"/>
<path d="M14.2405 26.0099C14.6463 26.0099 14.9752 25.7357 14.9752 25.3976C14.9752 25.0595 14.6463 24.7854 14.2405 24.7854C13.8348 24.7854 13.5059 25.0595 13.5059 25.3976C13.5059 25.7357 13.8348 26.0099 14.2405 26.0099Z" fill="#333333"/>
<path d="M17.179 26.0099C17.5848 26.0099 17.9137 25.7357 17.9137 25.3976C17.9137 25.0595 17.5848 24.7854 17.179 24.7854C16.7733 24.7854 16.4443 25.0595 16.4443 25.3976C16.4443 25.7357 16.7733 26.0099 17.179 26.0099Z" fill="#333333"/>
<path d="M20.1185 26.0099C20.5242 26.0099 20.8531 25.7357 20.8531 25.3976C20.8531 25.0595 20.5242 24.7854 20.1185 24.7854C19.7127 24.7854 19.3838 25.0595 19.3838 25.3976C19.3838 25.7357 19.7127 26.0099 20.1185 26.0099Z" fill="#333333"/>
<path d="M23.0569 26.0099C23.4627 26.0099 23.7916 25.7357 23.7916 25.3976C23.7916 25.0595 23.4627 24.7854 23.0569 24.7854C22.6512 24.7854 22.3223 25.0595 22.3223 25.3976C22.3223 25.7357 22.6512 26.0099 23.0569 26.0099Z" fill="#333333"/>
<path d="M27.7591 26.0099C28.1648 26.0099 28.4938 25.7357 28.4938 25.3976C28.4938 25.0595 28.1648 24.7854 27.7591 24.7854C27.3533 24.7854 27.0244 25.0595 27.0244 25.3976C27.0244 25.7357 27.3533 26.0099 27.7591 26.0099Z" fill="#333333"/>
<path d="M30.6976 26.0099C31.1033 26.0099 31.4322 25.7357 31.4322 25.3976C31.4322 25.0595 31.1033 24.7854 30.6976 24.7854C30.2918 24.7854 29.9629 25.0595 29.9629 25.3976C29.9629 25.7357 30.2918 26.0099 30.6976 26.0099Z" fill="#333333"/>
<path d="M17.179 19.6695C17.5848 19.6695 17.9137 19.3954 17.9137 19.0573C17.9137 18.7192 17.5848 18.4451 17.179 18.4451C16.7733 18.4451 16.4443 18.7192 16.4443 19.0573C16.4443 19.3954 16.7733 19.6695 17.179 19.6695Z" fill="#333333"/>
<path d="M20.1185 19.6695C20.5242 19.6695 20.8531 19.3954 20.8531 19.0573C20.8531 18.7192 20.5242 18.4451 20.1185 18.4451C19.7127 18.4451 19.3838 18.7192 19.3838 19.0573C19.3838 19.3954 19.7127 19.6695 20.1185 19.6695Z" fill="#333333"/>
<path d="M23.0569 19.6695C23.4627 19.6695 23.7916 19.3954 23.7916 19.0573C23.7916 18.7192 23.4627 18.4451 23.0569 18.4451C22.6512 18.4451 22.3223 18.7192 22.3223 19.0573C22.3223 19.3954 22.6512 19.6695 23.0569 19.6695Z" fill="#333333"/>
<path d="M27.7591 19.6695C28.1648 19.6695 28.4938 19.3954 28.4938 19.0573C28.4938 18.7192 28.1648 18.4451 27.7591 18.4451C27.3533 18.4451 27.0244 18.7192 27.0244 19.0573C27.0244 19.3954 27.3533 19.6695 27.7591 19.6695Z" fill="#333333"/>
<path d="M30.6976 19.6695C31.1033 19.6695 31.4322 19.3954 31.4322 19.0573C31.4322 18.7192 31.1033 18.4451 30.6976 18.4451C30.2918 18.4451 29.9629 18.7192 29.9629 19.0573C29.9629 19.3954 30.2918 19.6695 30.6976 19.6695Z" fill="#333333"/>
<path d="M11.3011 29.1798C11.7068 29.1798 12.0358 28.9057 12.0358 28.5675C12.0358 28.2294 11.7068 27.9553 11.3011 27.9553C10.8953 27.9553 10.5664 28.2294 10.5664 28.5675C10.5664 28.9057 10.8953 29.1798 11.3011 29.1798Z" fill="#333333"/>
<path d="M14.2405 29.1798C14.6463 29.1798 14.9752 28.9057 14.9752 28.5675C14.9752 28.2294 14.6463 27.9553 14.2405 27.9553C13.8348 27.9553 13.5059 28.2294 13.5059 28.5675C13.5059 28.9057 13.8348 29.1798 14.2405 29.1798Z" fill="#333333"/>
<path d="M17.179 29.1798C17.5848 29.1798 17.9137 28.9057 17.9137 28.5675C17.9137 28.2294 17.5848 27.9553 17.179 27.9553C16.7733 27.9553 16.4443 28.2294 16.4443 28.5675C16.4443 28.9057 16.7733 29.1798 17.179 29.1798Z" fill="#333333"/>
<path d="M20.1185 29.1798C20.5242 29.1798 20.8531 28.9057 20.8531 28.5675C20.8531 28.2294 20.5242 27.9553 20.1185 27.9553C19.7127 27.9553 19.3838 28.2294 19.3838 28.5675C19.3838 28.9057 19.7127 29.1798 20.1185 29.1798Z" fill="#333333"/>
</g>
<defs>
<clipPath id="clip0_64_1947">
<rect width="42" height="35" fill="white" transform="translate(0 0.215088)"/>
</clipPath>
</defs>
</svg>
