<svg width="49" height="64" viewBox="0 0 49 64" fill="none" xmlns="http://www.w3.org/2000/svg">
<g clip-path="url(#clip0_64_1839)">
<path d="M20.6697 20.0986H1.51562V34.8743H20.6697V20.0986Z" fill="#FEC986"/>
<path d="M15.3065 29.9494H6.87891V27.0762C6.87891 25.9428 7.59342 25.0242 8.47494 25.0242H13.7104C14.5919 25.0242 15.3064 25.9428 15.3064 27.0762V29.9494H15.3065Z" fill="#9B4573"/>
<path d="M18.3711 34.8745H3.81445V32.0413C3.81445 30.8858 4.54294 29.9492 5.44159 29.9492H16.744C17.6427 29.9492 18.3712 30.8858 18.3712 32.0413V34.8745H18.3711Z" fill="#C8546F"/>
<path d="M47.4851 20.0986H28.3311V34.8743H47.4851V20.0986Z" fill="#FEC986"/>
<path d="M45.1856 34.8747H30.6289V32.5256C30.6289 31.1029 31.526 29.9495 32.6325 29.9495H43.1819C44.2884 29.9495 45.1855 31.1029 45.1855 32.5256V34.8747H45.1856Z" fill="#C8546F"/>
<path d="M42.121 29.9495H33.6934V27.462C33.6934 26.1156 34.5422 25.0242 35.5894 25.0242H40.2249C41.2721 25.0242 42.1209 26.1156 42.1209 27.4618V29.9494H42.121V29.9495Z" fill="#9B4573"/>
<path d="M21.435 34.8743H0.749023V39.7991H21.435V34.8743Z" fill="#FEB860"/>
<path d="M48.2495 34.8743H27.5635V39.7991H48.2495V34.8743Z" fill="#FEB860"/>
<path d="M0 40.7634H1.5323V44.725H3.0313V40.7634H19.1537V44.725H20.6527V40.7634H22.185V33.9109H0V40.7634ZM1.499 35.8382H20.6859V38.8361H1.499V35.8382Z" fill="#1D1D1B"/>
<path d="M49.0002 33.9109H26.8154V40.7634H28.3477V44.725H29.8467V40.7634H45.9691V44.725H47.4681V40.7634H49.0004V33.9109H49.0002ZM47.5012 38.8361H28.3144V35.8382H47.5012V38.8361Z" fill="#1D1D1B"/>
<path d="M19.1202 32.9044H17.6213V32.1977C17.6213 31.4892 17.173 30.9129 16.6219 30.9129H5.56278C5.01172 30.9129 4.56345 31.4892 4.56345 32.1977V32.9044H3.06445V32.1977C3.06445 30.4266 4.18523 28.9856 5.56278 28.9856H16.622C17.9996 28.9856 19.1203 30.4266 19.1203 32.1977V32.9044H19.1202Z" fill="#1D1D1B"/>
<path d="M45.9357 32.9044H44.4367V32.1977C44.4367 31.4892 43.9884 30.9129 43.4374 30.9129H32.3782C31.8271 30.9129 31.3789 31.4892 31.3789 32.1977V32.9044H29.8799V32.1977C29.8799 30.4266 31.0007 28.9856 32.3782 28.9856H43.4374C44.815 28.9856 45.9358 30.4266 45.9358 32.1977V32.9044H45.9357Z" fill="#1D1D1B"/>
<path d="M21.4191 32.9044H19.9201V21.0625H2.2656V32.9044H0.766602V19.1353H21.4191V32.9044Z" fill="#1D1D1B"/>
<path d="M16.0555 27.9792H14.5565V26.7566C14.5565 26.3326 14.2882 25.9878 13.9586 25.9878H8.22595C7.89616 25.9878 7.628 26.3328 7.628 26.7566V27.9792H6.12891V26.7566C6.12891 25.27 7.06967 24.0605 8.22585 24.0605H13.9584C15.1146 24.0605 16.0553 25.2701 16.0553 26.7566V27.9792H16.0555Z" fill="#1D1D1B"/>
<path d="M48.2337 32.9044H46.7347V21.0625H29.08V32.9044H27.5811V19.1353H48.2337V32.9044Z" fill="#1D1D1B"/>
<path d="M42.8707 27.9792H41.3717V26.7566C41.3717 26.3326 41.1034 25.9878 40.7738 25.9878H35.0413C34.7115 25.9878 34.4433 26.3328 34.4433 26.7566V27.9792H32.9443V26.7566C32.9443 25.27 33.8851 24.0605 35.0413 24.0605H40.7738C41.9301 24.0605 42.8707 25.2701 42.8707 26.7566V27.9792Z" fill="#1D1D1B"/>
</g>
<defs>
<clipPath id="clip0_64_1839">
<rect width="49" height="63" fill="white" transform="translate(0 0.430176)"/>
</clipPath>
</defs>
</svg>
