<svg width="36" height="36" viewBox="0 0 36 36" fill="none" xmlns="http://www.w3.org/2000/svg">
<g clip-path="url(#clip0_170_11693)">
<path d="M26.3213 2.94215L25.2129 4.05054L31.9492 10.7869L33.0576 9.67848L26.3213 2.94215Z" fill="#CDD9DD"/>
<path d="M28.8371 11.0856L23.508 16.4147L19.585 12.4929L24.9141 7.1626L28.8371 11.0856Z" fill="#CDD9DD"/>
<path d="M17.8801 14.198L21.802 18.121L7.17834 32.7446C6.65438 33.2686 5.95738 33.5578 5.21683 33.5578C4.47627 33.5578 3.77927 33.2686 3.25531 32.7446C2.73135 32.2207 2.44336 31.5249 2.44336 30.7831C2.44336 30.0426 2.73135 29.3468 3.25531 28.8228L17.8801 14.198Z" fill="#D61616"/>
<path d="M35.6158 8.8252C36.0877 9.29713 36.0877 10.0607 35.6158 10.5314L32.8024 13.3448C32.5761 13.5711 32.27 13.6981 31.9493 13.6981C31.6299 13.6981 31.3225 13.5711 31.0962 13.3448L30.542 12.7906L8.8831 34.4507C7.90416 35.4297 6.60092 35.9693 5.21661 35.9693C3.83108 35.9693 2.52905 35.4297 1.5489 34.4507C0.569962 33.4706 0.0302734 32.1685 0.0302734 30.783C0.0302734 29.3987 0.569962 28.0967 1.5489 27.1165L23.209 5.45759L22.6548 4.90339C22.4286 4.6771 22.3015 4.36975 22.3015 4.05029C22.3015 3.73083 22.4286 3.42348 22.6548 3.1972L25.4682 0.383798C25.9402 -0.086917 26.7037 -0.086917 27.1744 0.383798L35.6158 8.8252ZM31.9493 10.7867L33.0578 9.6783L26.3213 2.94187L25.2129 4.05029L31.9493 10.7867ZM23.5079 16.4147L28.837 11.0856L24.914 7.16257L19.5849 12.4929L23.5079 16.4147ZM21.8017 18.1209L17.8799 14.1979L3.25509 28.8227C2.73114 29.3467 2.44314 30.0425 2.44314 30.783C2.44314 31.5248 2.73114 32.2206 3.25509 32.7445C3.77905 33.2685 4.47605 33.5577 5.21661 33.5577C5.95717 33.5577 6.65416 33.2685 7.17812 32.7445L21.8017 18.1209Z" fill="black"/>
</g>
<defs>
<clipPath id="clip0_170_11693">
<rect width="36" height="36" fill="white"/>
</clipPath>
</defs>
</svg>
