<svg width="45" height="45" viewBox="0 0 45 45" fill="none" xmlns="http://www.w3.org/2000/svg">
<g clip-path="url(#clip0_155_1158)">
<path fill-rule="evenodd" clip-rule="evenodd" d="M8.77068 37.3499C8.77068 37.3499 8.9348 40.6958 10.4886 42.2523C12.2992 44.0602 15.203 44.0893 16.9792 42.3158C19.5045 39.7905 19.8486 36.299 19.5469 33.4032L34.8098 18.1429C37.6871 18.4314 41.1733 18.0714 43.7436 15.5011C45.496 13.7487 45.4563 10.8635 43.6536 9.05816C42.0945 7.50169 38.926 7.53081 38.926 7.53081C38.926 7.53081 38.8254 4.23257 37.2557 2.66286C35.4398 0.841688 32.5201 0.801982 30.7519 2.57551C28.1842 5.14316 27.8798 8.72198 28.216 11.6523L13.0536 26.8173C10.1657 26.5287 6.65833 26.8861 4.06686 29.4749C2.30921 31.2299 2.34362 34.1073 4.13303 35.8993C5.68686 37.4452 8.77068 37.3499 8.77068 37.3499Z" fill="#FF7876"/>
</g>
<defs>
<clipPath id="clip0_155_1158">
<rect width="45" height="45" fill="white"/>
</clipPath>
</defs>
</svg>
