<svg width="43" height="47" viewBox="0 0 43 47" fill="none" xmlns="http://www.w3.org/2000/svg">
<path d="M29.1825 1.80908L23.498 29.2348L27.5584 29.9565C36.1527 24.3632 39.8407 1.80908 29.1825 1.80908Z" fill="#80362D"/>
<path d="M29.1816 1.80914C27.7604 1.04226 20.26 -0.905332 14.5644 1.80914C7.56035 5.14715 1.43598 17.0857 11.3162 29.2349C11.3302 29.2521 18.6247 28.5132 18.6247 28.5132L29.1816 1.80914Z" fill="#80362D"/>
<path d="M27.6016 25.8684H27.5575V24.1826H16.1886V25.8666C16.1886 27.5165 16.1809 29.3097 14.5645 30.3945V46.5563H21.873C21.873 46.5563 25.7001 46.5563 29.1816 46.5563V30.3692C27.6066 29.2818 27.6016 27.5041 27.6016 25.8684Z" fill="#FFD7A3"/>
<path d="M21.8734 39.3389C20.1272 39.3389 18.4794 39.1331 17.001 38.7758V46.5562H28.3698V38.2996C26.5276 38.9529 24.2908 39.3389 21.8734 39.3389Z" fill="#545465"/>
<path d="M28.3704 33.5651C28.6667 33.637 28.9336 33.6752 29.1825 33.6939V30.3693C27.6075 29.2818 27.6025 27.504 27.6025 25.8683L27.6014 25.8264V24.1406L18.6257 24.1825L16.1895 24.9042C17.8136 26.5283 22.7876 32.2119 28.3704 33.5651Z" fill="#FDC88E"/>
<path d="M33.2426 14.8002C33.2426 20.5799 26.775 27.7914 21.8737 27.7914C16.9725 27.7914 10.5049 20.5799 10.5049 14.8002C10.5049 9.02047 15.595 6.86108 21.8737 6.86108C28.1525 6.86108 33.2426 9.02047 33.2426 14.8002Z" fill="#FFE1B2"/>
<path d="M23.4969 3.2522C23.0406 3.2522 21.5593 3.70781 20.3485 4.10704L20.2487 3.97389C20.2487 3.97389 20.0816 4.09059 19.7923 4.29284C19.1189 4.5201 18.6246 4.69559 18.6246 4.69559L18.8145 4.97703C15.7323 7.13531 8.70002 12.0726 8.06768 12.6347C7.25565 13.3564 12.9401 31.7699 12.9401 21.2955C12.9401 12.5445 18.4104 10.8115 23.4969 9.74779C25.7977 9.26662 26.4745 8.06376 26.7451 6.86089C27.0159 5.65803 24.309 3.2522 23.4969 3.2522Z" fill="#80362D"/>
<path d="M25.9336 7.58287C27.4224 12.3342 30.4 14.4844 33.1915 15.1159C34.7211 15.462 34.0544 11.1916 34.0544 11.1916C34.0544 11.1916 31.8888 6.25968 31.6182 6.13947C31.3475 6.01916 29.182 1.80908 29.182 1.80908L24.3096 5.41778L25.9336 7.58287Z" fill="#80362D"/>
<path d="M15.4566 29.5298C14.696 30.628 13.1454 31.4001 9.96317 31.4001H9.69253C4.75917 31.4001 0.759766 34.9545 0.759766 39.3391V44.3912C0.759766 45.587 1.85045 46.5564 3.19596 46.5564H19.8595L15.4566 29.5298Z" fill="#E4EBF0"/>
<path d="M28.2897 29.5298C29.0502 30.628 30.6009 31.4001 33.7831 31.4001H34.0537C38.9871 31.4001 42.9865 34.9545 42.9865 39.3391V44.3912C42.9865 45.587 41.8958 46.5564 40.5503 46.5564H23.8867L28.2897 29.5298Z" fill="#E4EBF0"/>
<path d="M9.69206 45.1131C11.0375 45.1131 12.1283 44.1437 12.1283 42.9479C12.1283 41.7521 11.0375 40.7827 9.69206 40.7827C8.34658 40.7827 7.25586 41.7521 7.25586 42.9479C7.25586 44.1437 8.34658 45.1131 9.69206 45.1131Z" fill="#D0D7DC"/>
<path d="M37.1053 45.4193L36.1014 44.8061C36.9935 43.6525 37.5053 41.9228 37.5053 40.0605C37.5053 36.833 35.9248 34.1062 34.054 34.1062C32.1833 34.1062 30.6028 36.833 30.6028 40.0605C30.6028 41.9228 31.1145 43.6525 32.0067 44.8061L31.0028 45.4193C29.9747 44.0896 29.3848 42.1365 29.3848 40.0605C29.3848 36.1146 31.4357 33.0237 34.0542 33.0237C36.6725 33.0237 38.7235 36.1147 38.7235 40.0605C38.7232 42.1365 38.1334 44.0896 37.1053 45.4193Z" fill="#D0D7DC"/>
<path d="M31.6177 45.8345C32.0662 45.8345 32.4297 45.5114 32.4297 45.1128C32.4297 44.7142 32.0662 44.3911 31.6177 44.3911C31.1692 44.3911 30.8057 44.7142 30.8057 45.1128C30.8057 45.5114 31.1692 45.8345 31.6177 45.8345Z" fill="#545465"/>
<path d="M36.4907 45.8345C36.9392 45.8345 37.3028 45.5114 37.3028 45.1128C37.3028 44.7142 36.9392 44.3911 36.4907 44.3911C36.0423 44.3911 35.6787 44.7142 35.6787 45.1128C35.6787 45.5114 36.0423 45.8345 36.4907 45.8345Z" fill="#545465"/>
<path d="M9.69203 42.0454C9.35562 42.0454 9.08301 41.8031 9.08301 41.5041C9.08301 32.1513 14.0568 29.5878 14.2686 29.4833C14.5632 29.3375 14.9335 29.4322 15.0967 29.6935C15.2597 29.9539 15.1549 30.2822 14.8632 30.4282C14.8035 30.4589 10.301 32.86 10.301 41.5041C10.301 41.8031 10.0284 42.0454 9.69203 42.0454Z" fill="#D0D7DC"/>
<path d="M9.69204 44.0904C10.4022 44.0904 10.9778 43.5788 10.9778 42.9477C10.9778 42.3166 10.4022 41.8049 9.69204 41.8049C8.98192 41.8049 8.40625 42.3166 8.40625 42.9477C8.40625 43.5788 8.98192 44.0904 9.69204 44.0904Z" fill="#B2B9BF"/>
<path d="M34.0545 34.1065C33.8035 34.1065 33.5686 33.9674 33.4802 33.7451C32.951 32.4125 32.0896 31.8486 32.0811 31.8433C31.8056 31.6719 31.7385 31.3343 31.9314 31.0894C32.1243 30.8448 32.5036 30.7851 32.7797 30.9563C32.8277 30.9863 33.9626 31.7068 34.6289 33.385C34.7409 33.6668 34.5743 33.976 34.2572 34.0755C34.19 34.0964 34.1217 34.1065 34.0545 34.1065Z" fill="#D0D7DC"/>
<path d="M32.0329 14.8665C33.3616 14.5958 34.2321 15.1741 34.2321 16.31C34.2321 17.8136 32.4453 21.4974 30.5668 19.1969C28.6883 16.8963 32.0329 14.8665 32.0329 14.8665Z" fill="#FFE1B2"/>
</svg>
