<svg width="45" height="45" viewBox="0 0 45 45" fill="none" xmlns="http://www.w3.org/2000/svg">
<path d="M37.2501 16.7455C36.2114 14.306 34.5897 12.1587 32.5273 10.4923C30.465 8.82582 28.0252 7.69109 25.422 7.18771L27.7736 3.4252L25.3886 1.93457L22.2856 6.89934C19.1248 6.914 16.0376 7.85435 13.4054 9.60419C10.7732 11.354 8.71133 13.8367 7.47452 16.7455C5.81783 16.7769 4.23963 17.4572 3.07915 18.6399C1.91867 19.8227 1.26855 21.4135 1.26855 23.0705C1.26855 24.7275 1.91867 26.3183 3.07915 27.5011C4.23963 28.6838 5.81783 29.3641 7.47452 29.3956C8.71659 32.3163 10.7903 34.8071 13.4375 36.558C16.0847 38.3088 19.1885 39.2424 22.3623 39.2424C25.5361 39.2424 28.6399 38.3088 31.2871 36.558C33.9343 34.8071 36.008 32.3163 37.2501 29.3956C38.9068 29.3641 40.485 28.6838 41.6455 27.5011C42.806 26.3183 43.4561 24.7275 43.4561 23.0705C43.4561 21.4135 42.806 19.8227 41.6455 18.6399C40.485 17.4572 38.9068 16.7769 37.2501 16.7455ZM39.6365 25.5323C38.9933 26.1902 38.1166 26.5679 37.1967 26.5836L35.3751 26.6182L34.6621 28.2946C33.6361 30.7078 31.9229 32.7659 29.7359 34.2126C27.5489 35.6592 24.9846 36.4306 22.3624 36.4306C19.7401 36.4306 17.1758 35.6592 14.9888 34.2126C12.8018 32.7659 11.0886 30.7078 10.0626 28.2946L9.34949 26.6182L7.52795 26.5836C6.60761 26.5664 5.73079 26.1887 5.08601 25.5317C4.44124 24.8748 4.08001 23.991 4.08001 23.0705C4.08001 22.15 4.44124 21.2663 5.08601 20.6093C5.73079 19.9524 6.60761 19.5747 7.52795 19.5574L9.34949 19.5228L10.0626 17.8464C11.0886 15.4332 12.8018 13.3752 14.9888 11.9286C17.1759 10.4819 19.7402 9.71056 22.3624 9.71056C24.9846 9.71056 27.5488 10.4819 29.7359 11.9286C31.9229 13.3752 33.6361 15.4332 34.6621 17.8464L35.3751 19.5228L37.1967 19.5574C37.8831 19.5704 38.5507 19.7842 39.117 20.1725C39.6832 20.5607 40.1233 21.1063 40.3829 21.7419C40.6424 22.3776 40.7101 23.0753 40.5774 23.7489C40.4448 24.4226 40.1177 25.0426 39.6365 25.5323Z" fill="#E74424"/>
<path d="M18.1436 19.5549H14.6279V23.0706H18.1436V19.5549Z" fill="#E74424"/>
<path d="M30.0967 19.5549H26.5811V23.0706H30.0967V19.5549Z" fill="#E74424"/>
<path d="M22.3623 32.9143C23.2857 32.9143 24.2 32.7324 25.053 32.3791C25.9061 32.0257 26.6812 31.5078 27.3341 30.8549C27.9871 30.202 28.505 29.4269 28.8583 28.5738C29.2117 27.7207 29.3936 26.8064 29.3936 25.8831H15.3311C15.3311 26.8064 15.5129 27.7207 15.8663 28.5738C16.2196 29.4269 16.7375 30.202 17.3905 30.8549C18.7091 32.1735 20.4975 32.9143 22.3623 32.9143Z" fill="#E74424"/>
</svg>
