<svg width="45" height="39" viewBox="0 0 45 39" fill="none" xmlns="http://www.w3.org/2000/svg">
<g clip-path="url(#clip0_101_556)">
<path d="M39.8686 33.3807C39.8686 26.0352 38.7378 19.9229 27.4897 18.5974C26.8918 19.247 26.1327 19.7715 25.2688 20.1319C24.405 20.4924 23.4585 20.6796 22.4997 20.6796C21.5409 20.6796 20.5945 20.4924 19.7306 20.1319C18.8667 19.7715 18.1076 19.247 17.5097 18.5974C6.27501 19.9237 5.13086 26.0359 5.13086 33.38" fill="white"/>
<path d="M39.8686 33.3807C39.8686 26.0352 38.7378 19.9229 27.4897 18.5974C26.8918 19.247 26.1327 19.7715 25.2688 20.1319C24.405 20.4924 23.4585 20.6796 22.4997 20.6796C21.5409 20.6796 20.5945 20.4924 19.7306 20.1319C18.8667 19.7715 18.1076 19.247 17.5097 18.5974C6.27501 19.9237 5.13086 26.0359 5.13086 33.38" stroke="#FF0050" stroke-width="2.592" stroke-linecap="round" stroke-linejoin="round"/>
<path d="M29.3984 8.52315C29.3984 12.7102 25.9743 16.3725 22.5066 16.3718C19.0389 16.371 15.8485 12.7052 15.614 8.52315C15.3795 4.34113 18.2432 0.940918 22.5066 0.940918C26.77 0.940918 29.3984 4.33532 29.3984 8.52315Z" fill="white"/>
<path d="M29.3984 8.52315C29.3984 12.7102 25.9743 16.3725 22.5066 16.3718C19.0389 16.371 15.8485 12.7052 15.614 8.52315C15.3795 4.34113 18.2432 0.940918 22.5066 0.940918C26.77 0.940918 29.3984 4.33532 29.3984 8.52315Z" stroke="#FF0050" stroke-width="2.592" stroke-linecap="round" stroke-linejoin="round"/>
<path d="M11.6913 26.2625C10.4851 28.9258 10.5186 32.9801 10.5186 35.772C14.3305 37.0915 18.3975 37.7698 22.5022 37.7704C26.6112 37.7712 30.681 37.0788 34.4849 35.7321C34.4849 33.1979 34.4597 29.5494 33.6071 27.0138" fill="white"/>
<path d="M11.6913 26.2625C10.4851 28.9258 10.5186 32.9801 10.5186 35.772C14.3305 37.0915 18.3975 37.7698 22.5022 37.7704C26.6112 37.7712 30.681 37.0788 34.4849 35.7321C34.4849 33.1979 34.4597 29.5494 33.6071 27.0138" stroke="#FF0050" stroke-width="2.592" stroke-linecap="round" stroke-linejoin="round"/>
<path d="M5.13086 33.3809C5.13086 33.8955 7.65035 35.1027 10.4915 35.1027L5.13086 33.3809Z" fill="white"/>
<path d="M5.13086 33.3809C5.13086 33.8955 7.65035 35.1027 10.4915 35.1027" stroke="#FF0050" stroke-width="2.592" stroke-linecap="round" stroke-linejoin="round"/>
<path d="M39.8684 33.3809C39.8684 33.8955 37.3489 35.1027 34.5078 35.1027L39.8684 33.3809Z" fill="white"/>
<path d="M39.8684 33.3809C39.8684 33.8955 37.3489 35.1027 34.5078 35.1027" stroke="#FF0050" stroke-width="2.592" stroke-linecap="round" stroke-linejoin="round"/>
<path d="M27.1282 27.8544H24.0693V25.2034H20.93V27.8544H17.8711V30.5752H20.93V33.2262H24.0693V30.5752H27.1282V27.8544Z" fill="white" stroke="#FF0050" stroke-width="2.074" stroke-linecap="round" stroke-linejoin="round"/>
</g>
<defs>
<clipPath id="clip0_101_556">
<rect width="45" height="39" fill="white"/>
</clipPath>
</defs>
</svg>
