<svg width="71" height="69" viewBox="0 0 71 69" fill="none" xmlns="http://www.w3.org/2000/svg">
<g clip-path="url(#clip0_105_402)">
<path d="M45.4943 2.55664L37.7207 42.9735L43.2734 44.0371C55.0263 35.7942 60.0699 2.55664 45.4943 2.55664Z" fill="#80362D"/>
<path d="M45.4941 2.55663C43.5506 1.42648 33.2936 -1.44365 25.5046 2.55663C15.9264 7.47579 7.55109 25.0695 21.0626 42.9735C21.0818 42.9989 31.0573 41.9099 31.0573 41.9099L45.4941 2.55663Z" fill="#80362D"/>
<path d="M43.3337 38.0126H43.2733V35.5283H27.726V38.01C27.726 40.4413 27.7154 43.0841 25.5049 44.6826V68.5H35.4996C35.4996 68.5 40.7332 68.5 45.4944 68.5V44.6454C43.3404 43.0428 43.3337 40.4231 43.3337 38.0126Z" fill="#FFD7A3"/>
<path d="M35.4991 57.8638C33.1111 57.8638 30.8577 57.5606 28.8359 57.034V68.4998H44.3832V56.3322C41.8639 57.295 38.805 57.8638 35.4991 57.8638Z" fill="#545465"/>
<path d="M44.3835 49.3551C44.7887 49.461 45.1536 49.5174 45.494 49.5449V44.6455C43.3402 43.0429 43.3333 40.4229 43.3333 38.0125L43.3318 37.9507V35.4664L31.0572 35.5282L27.7256 36.5917C29.9467 38.985 36.7488 47.3609 44.3835 49.3551Z" fill="#FDC88E"/>
<path d="M51.0467 21.7013C51.0467 30.2187 42.2021 40.8462 35.4994 40.8462C28.7968 40.8462 19.9521 30.2187 19.9521 21.7013C19.9521 13.1838 26.913 10.0016 35.4994 10.0016C44.0858 10.0016 51.0467 13.1838 51.0467 21.7013Z" fill="#FFE1B2"/>
<path d="M37.7203 4.68372C37.0963 4.68372 35.0705 5.35514 33.4147 5.94349L33.2782 5.74727C33.2782 5.74727 33.0497 5.91924 32.6541 6.2173C31.7332 6.5522 31.0573 6.81082 31.0573 6.81082L31.317 7.22557C27.1019 10.4062 17.485 17.6821 16.6203 18.5105C15.5098 19.5741 23.2835 46.7098 23.2835 31.2738C23.2835 18.3777 30.7643 15.8237 37.7203 14.2562C40.8667 13.5471 41.7922 11.7744 42.1623 10.0018C42.5326 8.22915 38.8309 4.68372 37.7203 4.68372Z" fill="#80362D"/>
<path d="M41.052 11.0654C43.088 18.0673 47.1599 21.236 50.9774 22.1667C53.0692 22.6767 52.1574 16.3834 52.1574 16.3834C52.1574 16.3834 49.1959 9.11542 48.8258 8.93827C48.4557 8.76096 45.4942 2.55664 45.4942 2.55664L38.8311 7.87472L41.052 11.0654Z" fill="#80362D"/>
<path d="M26.7243 43.4081C25.6842 45.0265 23.5637 46.1643 19.2119 46.1643H18.8418C12.0953 46.1643 6.62598 51.4023 6.62598 57.864V65.3091C6.62598 67.0713 8.11752 68.5 9.95756 68.5H32.7455L26.7243 43.4081Z" fill="#E4EBF0"/>
<path d="M44.2751 43.4081C45.3152 45.0265 47.4357 46.1643 51.7875 46.1643H52.1576C58.9041 46.1643 64.3735 51.4023 64.3735 57.864V65.3091C64.3735 67.0713 62.8819 68.5 61.0419 68.5H38.2539L44.2751 43.4081Z" fill="#E4EBF0"/>
<path d="M18.8414 66.3727C20.6813 66.3727 22.1729 64.9441 22.1729 63.1819C22.1729 61.4197 20.6813 59.9911 18.8414 59.9911C17.0014 59.9911 15.5098 61.4197 15.5098 63.1819C15.5098 64.9441 17.0014 66.3727 18.8414 66.3727Z" fill="#D0D7DC"/>
<path d="M56.3306 66.8245L54.9577 65.9208C56.1777 64.2207 56.8775 61.6717 56.8775 58.9274C56.8775 54.171 54.7162 50.1526 52.1578 50.1526C49.5995 50.1526 47.4382 54.171 47.4382 58.9274C47.4382 61.6717 48.1379 64.2207 49.358 65.9208L47.9851 66.8245C46.5792 64.865 45.7725 61.9866 45.7725 58.9274C45.7725 53.1123 48.5772 48.5573 52.158 48.5573C55.7387 48.5573 58.5436 53.1124 58.5436 58.9274C58.5431 61.9866 57.7365 64.865 56.3306 66.8245Z" fill="#D0D7DC"/>
<path d="M48.8263 67.4363C49.4396 67.4363 49.9368 66.9601 49.9368 66.3728C49.9368 65.7854 49.4396 65.3092 48.8263 65.3092C48.213 65.3092 47.7158 65.7854 47.7158 66.3728C47.7158 66.9601 48.213 67.4363 48.8263 67.4363Z" fill="#545465"/>
<path d="M55.4894 67.4363C56.1027 67.4363 56.5999 66.9601 56.5999 66.3728C56.5999 65.7854 56.1027 65.3092 55.4894 65.3092C54.8761 65.3092 54.3789 65.7854 54.3789 66.3728C54.3789 66.9601 54.8761 67.4363 55.4894 67.4363Z" fill="#545465"/>
<path d="M18.8416 61.8525C18.3816 61.8525 18.0088 61.4955 18.0088 61.0549C18.0088 47.2717 24.8107 43.494 25.1003 43.34C25.5031 43.1251 26.0096 43.2646 26.2327 43.6498C26.4556 44.0335 26.3124 44.5173 25.9134 44.7324C25.8317 44.7777 19.6745 48.3162 19.6745 61.0549C19.6745 61.4955 19.3017 61.8525 18.8416 61.8525Z" fill="#D0D7DC"/>
<path d="M18.8414 64.8659C19.8125 64.8659 20.5997 64.1119 20.5997 63.1819C20.5997 62.2518 19.8125 61.4978 18.8414 61.4978C17.8703 61.4978 17.083 62.2518 17.083 63.1819C17.083 64.1119 17.8703 64.8659 18.8414 64.8659Z" fill="#B2B9BF"/>
<path d="M52.1576 50.1531C51.8143 50.1531 51.493 49.9481 51.3721 49.6205C50.6485 47.6567 49.4705 46.8257 49.4589 46.8179C49.082 46.5653 48.9904 46.0678 49.2541 45.7069C49.5179 45.3464 50.0365 45.2585 50.4142 45.5108C50.4799 45.5549 52.0318 46.6167 52.943 49.0899C53.0962 49.5051 52.8684 49.9607 52.4347 50.1075C52.3429 50.1382 52.2494 50.1531 52.1576 50.1531Z" fill="#D0D7DC"/>
<path d="M49.3925 21.7986C51.2096 21.3997 52.4001 22.252 52.4001 23.9259C52.4001 26.1417 49.9566 31.5705 47.3876 28.1802C44.8187 24.79 49.3925 21.7986 49.3925 21.7986Z" fill="#FFE1B2"/>
</g>
<defs>
<clipPath id="clip0_105_402">
<rect width="71" height="68" fill="white" transform="translate(0 0.5)"/>
</clipPath>
</defs>
</svg>
