<svg width="62" height="59" viewBox="0 0 62 59" fill="none" xmlns="http://www.w3.org/2000/svg">
<path d="M33.4586 18.1879C33.4843 18.5676 33.4715 18.7881 33.4715 18.7881C26.4306 18.7881 21.1272 15.2113 21.1272 15.2113C21.1272 18.2736 9.87704 18.7881 9.87704 18.7881C9.87704 18.7881 9.31058 6.02441 21.6677 6.02441C26.2245 6.02441 29.0177 7.76384 30.7425 9.96872C33.0595 12.933 33.42 16.7302 33.4586 18.1879Z" fill="#9B8579"/>
<path d="M39.9071 6.02441C52.2386 6.02441 51.6979 18.7881 51.6979 18.7881C44.6569 18.7881 39.3665 15.2113 39.3665 15.2113C39.3665 16.7915 36.3673 17.6857 33.4711 18.1879H33.4582C33.4196 16.7302 33.0592 12.933 30.7422 9.9686L30.8966 9.85838C32.6216 7.71482 35.4019 6.02441 39.9071 6.02441Z" fill="#9B8579"/>
<path d="M42.0447 50.4158C42.0447 50.4158 42.0318 46.5572 36.2266 43.4949L37.2177 40.7265L37.2692 40.604C38.1317 40.9592 39.1872 41.241 40.3328 41.241C41.2209 41.241 41.9934 41.0695 42.624 40.8246L44.1944 45.3201L42.0447 51.4324C42.0447 50.8077 42.0447 50.4158 42.0447 50.4158Z" fill="#6D6E71"/>
<path d="M24.3446 40.7264L25.9536 45.3199L23.2763 52.9757H20.0582L17.3809 45.3199L18.9899 40.7264L19.0285 40.653C19.788 40.9959 20.6761 41.2409 21.6672 41.2409C22.6584 41.2409 23.5465 40.9959 24.306 40.653L24.3446 40.7264Z" fill="#6D6E71"/>
<path d="M34.7587 39.0974C34.7587 39.0974 35.7369 39.9671 37.2687 40.6041L37.2172 40.7266L36.226 43.495C35.0289 42.858 33.6002 42.2701 31.8624 41.7434C31.8624 41.7434 31.5148 41.5719 31 41.2903C32.1328 40.702 33.9478 39.9548 34.7587 39.0974Z" fill="#E7ECED"/>
<path d="M42.0449 51.4324L44.1946 45.3201L42.6242 40.8246C44.2461 40.1999 45.057 39.0974 45.057 39.0974C46.2284 40.3468 50.5276 41.7433 50.5276 41.7433C60.6837 44.8056 60.7094 50.4157 60.7094 50.4157C60.7094 50.4157 60.7094 51.5426 60.7094 52.9759H42.0449C42.0449 52.3878 42.0449 51.8611 42.0449 51.4324Z" fill="#E7ECED"/>
<path d="M36.2266 43.4948C42.0319 46.5571 42.0448 50.4157 42.0448 50.4157C42.0448 50.4157 42.0448 50.8076 42.0448 51.4323L41.5042 52.9758H23.2773L25.9547 45.32L24.3457 40.7265L24.3071 40.6531C25.9933 39.8936 27.036 38.6809 27.036 38.6809C27.8469 39.5506 29.8421 40.6775 31.0006 41.2901C31.5156 41.5718 31.863 41.7432 31.863 41.7432C33.6008 42.2699 35.0297 42.8578 36.2266 43.4948Z" fill="#E7ECED"/>
<path d="M17.3811 45.3199L20.0585 52.9757H1.29102C1.29102 51.5424 1.29102 50.4155 1.29102 50.4155C1.29102 50.4155 1.39406 44.8421 11.4857 41.7431C11.4857 41.7431 15.1285 39.9302 16.2998 38.6808C16.2998 38.6808 17.3425 39.8934 19.0287 40.6529L18.9901 40.7264L17.3811 45.3199Z" fill="#E7ECED"/>
<path d="M16.378 35.4716C17.9227 36.2311 19.6991 36.6475 21.6685 36.6475C23.6378 36.6475 25.4142 36.2311 26.9589 35.4716L27.0361 35.6185V38.6808C27.0361 38.6808 25.9934 39.8935 24.3072 40.653C23.5477 40.9959 22.6596 41.2409 21.6685 41.2409C20.6773 41.2409 19.7892 40.9959 19.0297 40.653C17.3435 39.8935 16.3008 38.6808 16.3008 38.6808V35.6185L16.378 35.4716Z" fill="#FFD7A3"/>
<path d="M42.6226 40.8245C41.9918 41.0695 41.2195 41.2409 40.3314 41.2409C39.1859 41.2409 38.1303 40.9592 37.2678 40.6039C35.7361 39.9669 34.7578 39.0972 34.7578 39.0972V35.5327C36.2639 36.2555 38.0015 36.6474 39.9066 36.6474C41.8117 36.6474 43.5495 36.2555 45.0554 35.5327V39.0972C45.0554 39.0973 44.2445 40.1998 42.6226 40.8245Z" fill="#FFD7A3"/>
<path d="M54.9163 23.3693C54.9163 24.7779 53.4746 26.4316 51.6983 26.4316L51.5566 26.4071C51.6468 25.758 51.6983 25.0843 51.6983 24.3982V21.3359C53.4745 21.3359 54.9163 21.9606 54.9163 23.3693Z" fill="#FFD7A3"/>
<path d="M9.87622 24.3982C9.87622 25.0843 9.92774 25.7579 10.0179 26.4071L9.87622 26.4316C8.09987 26.4316 6.6582 24.7779 6.6582 23.3693C6.6582 21.9606 8.09987 21.3359 9.87622 21.3359V24.3982Z" fill="#FFD7A3"/>
<path d="M36.6897 23.3693C36.6897 24.7779 35.2481 26.4316 33.4717 26.4316L33.3301 26.4071C33.4202 25.758 33.4717 25.0843 33.4717 24.3982V21.3359C35.2481 21.3359 36.6897 21.9606 36.6897 23.3693Z" fill="#FFD7A3"/>
<path d="M45.0567 35.5329C43.5507 36.2556 41.813 36.6476 39.9079 36.6476C38.0028 36.6476 36.265 36.2556 34.7591 35.5329C33.2402 34.8347 31.9401 33.8057 30.8975 32.544L30.7559 32.4338C32.1203 30.7679 32.9956 28.6978 33.3303 26.4071L33.472 26.4316C35.2483 26.4316 36.69 24.7779 36.69 23.3693C36.69 21.9606 35.2483 21.3359 33.472 21.3359V18.7881C33.472 18.7881 33.4849 18.5677 33.4591 18.1878H33.472C36.3682 17.6857 39.3674 16.7915 39.3674 15.2113C39.3674 15.2113 44.6578 18.7881 51.6988 18.7881V21.3359V24.3982C51.6988 25.0842 51.6473 25.7578 51.5572 26.4071C50.9779 30.4861 48.6223 33.8792 45.0567 35.5329Z" fill="#FFE1B2"/>
<path d="M33.4717 21.3359V24.3982C33.4717 25.0842 33.4202 25.7578 33.3301 26.4071C32.9954 28.6978 32.12 30.7679 30.7556 32.4338C29.7515 33.7078 28.4644 34.7489 26.9583 35.4717C25.4136 36.2312 23.6373 36.6476 21.6679 36.6476C19.6985 36.6476 17.9221 36.2312 16.3774 35.4717C12.9019 33.7936 10.5979 30.425 10.0186 26.4072C9.92847 25.7581 9.87695 25.0844 9.87695 24.3984V21.336V18.7882C9.87695 18.7882 21.1271 18.2737 21.1271 15.2114C21.1271 15.2114 26.4303 18.7882 33.4715 18.7882V21.3359H33.4717Z" fill="#FFE1B2"/>
<path d="M36.1489 47.1536H28.6445V49.6111H36.1489V47.1536Z" fill="#231F20"/>
<path d="M50.9313 40.5762C49.4831 40.1042 47.3032 39.2285 46.3475 38.5533V36.272C49.6054 34.4973 51.8546 31.3885 52.6624 27.5519C54.7447 27.0787 56.2075 25.1334 56.2075 23.3694C56.2075 21.7199 54.9805 20.557 52.9895 20.2132V18.8104C53.0072 18.2945 53.1257 12.1836 49.0752 8.17068C46.8148 5.93115 43.7303 4.79565 39.9075 4.79565C36.0912 4.79565 33.0263 5.91087 30.7758 8.11391C28.5286 5.91124 25.4729 4.79565 21.6677 4.79565C17.8329 4.79565 14.7418 5.93385 12.4804 8.17867C8.44159 12.1877 8.56671 18.2819 8.58569 18.8107V20.2132C6.59486 20.557 5.36767 21.7199 5.36767 23.3694C5.36767 25.1339 6.83129 27.0799 8.91457 27.5524C9.70997 31.2969 11.8811 34.3607 15.0088 36.1533V38.1644C14.0737 38.9378 12.1633 40.0124 10.9822 40.6069C0.242365 43.9453 0.00503582 50.1315 0.000258247 50.3941C0.000129124 50.4012 0 50.4085 0 50.4156V52.9757C0 53.6544 0.578216 54.2045 1.29124 54.2045H60.7088C61.4218 54.2045 62 53.6544 62 52.9757V50.4103C61.9987 50.1448 61.8451 43.8722 50.9313 40.5762ZM21.6679 37.8762C23.1025 37.8762 24.4678 37.6752 25.7442 37.2804V38.1971C25.3751 38.5446 24.6751 39.1275 23.7529 39.5428C22.3735 40.1658 20.9628 40.1662 19.5813 39.5423C18.6617 39.1281 17.9608 38.5443 17.5913 38.1966V37.2798C18.8703 37.6756 20.2343 37.8762 21.6679 37.8762ZM34.7628 22.7386C35.115 22.8547 35.3983 23.0479 35.3983 23.3694C35.3983 23.7564 35.1504 24.252 34.7587 24.631C34.7598 24.5535 34.7628 22.7386 34.7628 22.7386ZM30.7878 34.2891C31.5922 35.0768 32.4885 35.7399 33.4674 36.2725V38.5599C32.894 38.9831 31.9677 39.4326 31.2554 39.7781C31.1773 39.8161 31.1002 39.8534 31.0244 39.8904C29.8326 39.2338 28.8807 38.6243 28.3266 38.1648V36.1544C29.2307 35.6377 30.0535 35.0141 30.7878 34.2891ZM43.765 38.644C43.4761 38.9276 42.929 39.3812 42.1356 39.6868C41.5796 39.9027 40.9729 40.0122 40.3322 40.0122C39.503 40.0122 38.6449 39.8319 37.7856 39.4781C37.0265 39.1624 36.4218 38.7782 36.0499 38.5136V37.3437C37.2618 37.6968 38.5523 37.8761 39.9075 37.8761C41.2627 37.8761 42.5531 37.6968 43.765 37.3437V38.644ZM34.7948 40.6819C35.0451 40.8481 35.3419 41.031 35.6784 41.2144L35.4839 41.7574C35.0139 41.5491 34.5234 41.3506 34.0097 41.161C34.2821 41.0084 34.5472 40.8495 34.7948 40.6819ZM18.7423 45.3203L19.8238 42.2328C21.0438 42.5407 22.2924 42.5406 23.5117 42.2329L24.5933 45.3203L22.3457 51.7471H20.99L18.7423 45.3203ZM27.1791 44.9314L25.8799 41.2225C26.3497 40.9359 26.7542 40.6362 27.0801 40.3666C28.0533 41.0855 29.3259 41.8102 30.3645 42.3596C30.8931 42.6487 31.2528 42.8265 31.2679 42.834C31.333 42.8661 31.4007 42.8929 31.4704 42.914C33.0622 43.3966 34.4117 43.9373 35.5999 44.5695C40.5244 47.1673 40.7439 50.2316 40.7528 50.4313V51.2328L40.5727 51.747H25.0674L27.1794 45.708C27.2676 45.456 27.2676 45.1834 27.1791 44.9314ZM37.7864 42.9467L38.0642 42.171C38.8223 42.3691 39.5812 42.4698 40.3323 42.4698C40.8299 42.4698 41.3167 42.425 41.7888 42.3371L42.8328 45.3187L42.2039 47.1068C41.413 45.8159 40.0691 44.3195 37.7864 42.9467ZM50.4072 24.3983C50.4072 25.0001 50.3633 25.6219 50.2771 26.2426C49.7457 29.9857 47.6364 32.9693 44.4907 34.4284C44.4854 34.4308 44.4803 34.4333 44.475 34.4357C43.1157 35.0881 41.579 35.4187 39.9076 35.4187C38.2362 35.4187 36.6995 35.088 35.3402 34.4357C35.3336 34.4327 35.3271 34.4296 35.3205 34.4265C34.2294 33.9249 33.254 33.2222 32.4086 32.3381C33.3653 30.9368 34.0531 29.3129 34.4318 27.553C36.5163 27.0814 37.9809 25.1347 37.9809 23.3695C37.9809 21.7201 36.7539 20.5572 34.7629 20.2134V19.1978C36.7244 18.7966 38.8475 18.1558 39.9312 16.9859C41.838 18.0087 45.6603 19.7086 50.4073 19.9799V24.3983H50.4072ZM53.6252 23.3694C53.6252 23.7564 53.3773 24.252 52.9855 24.631C52.9867 24.5535 52.9896 22.7386 52.9896 22.7386C53.3417 22.8547 53.6252 23.0477 53.6252 23.3694ZM39.9075 7.25317C42.9942 7.25317 45.4485 8.13112 47.2023 9.86268C49.6044 12.2343 50.2122 15.6913 50.3622 17.5121C44.5071 17.1125 40.1594 14.2398 40.1146 14.2097C39.7206 13.9435 39.2035 13.9086 38.7744 14.1196C38.3452 14.3304 38.0755 14.7518 38.0755 15.2115C38.0755 15.3717 37.4242 16.068 34.644 16.7001C34.4431 14.9495 33.8863 12.3969 32.3821 10.0837C34.16 8.20656 36.6862 7.25317 39.9075 7.25317ZM14.3447 9.87927C16.1002 8.13664 18.5641 7.25305 21.6679 7.25305C25.2116 7.25305 27.9165 8.41348 29.7066 10.7019C31.5272 13.0313 32.005 15.9896 32.1284 17.5113C26.2742 17.1099 21.9186 14.2388 21.8738 14.2087C21.4798 13.943 20.9628 13.9087 20.5343 14.1196C20.1053 14.3306 19.836 14.7517 19.836 15.2111C19.836 15.3885 19.0257 16.2533 15.2819 16.9369C13.7821 17.2108 12.2655 17.3725 11.211 17.4624C11.36 15.6382 11.9654 12.2412 14.3447 9.87927ZM8.58569 22.7386C8.58569 22.7386 8.58866 24.5535 8.58982 24.631C8.19806 24.252 7.95014 23.7564 7.95014 23.3694C7.95014 23.0477 8.23357 22.8547 8.58569 22.7386ZM11.2987 26.2462C11.2121 25.6227 11.1682 25.001 11.1682 24.3983V19.9339C12.2797 19.8452 14.0026 19.6717 15.7443 19.355C17.0025 19.1262 20.2205 18.541 21.6793 16.9779C23.584 17.9996 27.4198 19.7076 32.1802 19.9797V24.3981C32.1802 25 32.1363 25.6217 32.0509 26.2378C31.7467 28.3201 30.9464 30.2014 29.7369 31.6783C29.732 31.6843 29.7272 31.6903 29.7225 31.6963C28.8205 32.8408 27.6948 33.7417 26.3655 34.3798C24.9635 35.0692 23.3829 35.4186 21.6677 35.4186C19.9524 35.4186 18.372 35.0692 16.9615 34.3756C13.8941 32.8946 11.8295 29.9293 11.2987 26.2462ZM2.58247 50.4434C2.59164 50.312 2.69985 49.2066 3.785 47.7804C5.73877 45.2124 12.0196 42.8643 12.0843 42.8321C12.3988 42.6757 14.686 41.5238 16.2538 40.3653C16.5801 40.6353 16.9849 40.9356 17.4555 41.2226L16.1563 44.9315C16.068 45.1835 16.068 45.4561 16.1562 45.7081L18.2682 51.7471H2.58247V50.4434ZM59.4175 51.747H43.3354V51.6375L45.4185 45.7098C45.5072 45.4576 45.5074 45.1847 45.4192 44.9321L44.1984 41.4374C44.5806 41.2138 44.9067 40.9791 45.1738 40.7585C46.8821 41.8258 49.4949 42.7063 50.1098 42.9059C50.1188 42.9089 56.3084 45.192 58.2431 47.7612C59.3327 49.2078 59.4125 50.3287 59.4175 50.4323V51.747Z" fill="#231F20"/>
<path d="M54.3755 47.1536H46.8711V49.6111H54.3755V47.1536Z" fill="#231F20"/>
</svg>
