<svg width="52" height="54" viewBox="0 0 52 54" fill="none" xmlns="http://www.w3.org/2000/svg">
<path d="M49.7974 7.23938H2.20117V37.4034H49.7974V7.23938Z" fill="#F33052"/>
<path d="M48.75 8.18774V36.5934H3.25V8.18774H48.75ZM49.5625 4.81274H2.4375C1.09688 4.81274 0 5.95181 0 7.34399V37.4372C0 38.8294 1.09688 39.9684 2.4375 39.9684H49.5625C50.9031 39.9684 52 38.8294 52 37.4372V7.34399C52 5.95181 50.9031 4.81274 49.5625 4.81274Z" fill="black"/>
<path d="M30.0625 39.9701H21.9375V47.493H30.0625V39.9701Z" fill="#494949"/>
<path d="M37.4684 45.8123H14.5234V49.1873H37.4684V45.8123Z" fill="black"/>
<path d="M21.9375 39.9701H28.717L21.9375 43.1072V39.9701Z" fill="black"/>
<g opacity="0.35">
<path d="M3.25 8.18774H17.0625L3.25 16.9425V8.18774Z" fill="white"/>
</g>
<path d="M22.0294 28.3162L11.7188 23.6604V21.0819L22.0294 16.4481V19.4839L14.8371 22.3391L22.0294 25.3007V28.3162Z" fill="white"/>
<path d="M22.9824 30.3615L26.7069 14.2104H28.8714L25.1063 30.3615H22.9824Z" fill="white"/>
<path d="M29.8262 28.3264V25.3108L37.0282 22.3695L29.8262 19.4619V16.4683L40.1465 21.1022V23.6588L29.8262 28.3264Z" fill="white"/>
</svg>
