<svg width="45" height="45" viewBox="0 0 45 45" fill="none" xmlns="http://www.w3.org/2000/svg">
<g clip-path="url(#clip0_155_1174)">
<path d="M22.5001 44.1037C34.4314 44.1037 44.1037 34.4314 44.1037 22.5001C44.1037 10.5687 34.4314 0.896484 22.5001 0.896484C10.5687 0.896484 0.896484 10.5687 0.896484 22.5001C0.896484 34.4314 10.5687 44.1037 22.5001 44.1037Z" fill="#D5E2E8"/>
<path d="M22.5004 33.1673C28.3918 33.1673 33.1678 28.3913 33.1678 22.4999C33.1678 16.6085 28.3918 11.8325 22.5004 11.8325C16.609 11.8325 11.833 16.6085 11.833 22.4999C11.833 28.3913 16.609 33.1673 22.5004 33.1673Z" fill="#3CC4DC"/>
<path d="M22.5001 25.9063C24.3814 25.9063 25.9065 24.3812 25.9065 22.4999C25.9065 20.6186 24.3814 19.0935 22.5001 19.0935C20.6188 19.0935 19.0938 20.6186 19.0938 22.4999C19.0938 24.3812 20.6188 25.9063 22.5001 25.9063Z" fill="#272828"/>
<path d="M22.5 45C16.49 45 10.8398 42.6596 6.59004 38.4099C2.34035 34.1602 0 28.51 0 22.5C0 16.49 2.34035 10.8398 6.59004 6.59013C10.8398 2.34035 16.49 0 22.5 0C28.51 0 34.1602 2.34035 38.41 6.59013C42.6596 10.8398 45 16.49 45 22.5C45 28.51 42.6596 34.1602 38.41 38.4099C34.1602 42.6596 28.51 45 22.5 45ZM22.5 1.79279C11.082 1.79279 1.79279 11.082 1.79279 22.5C1.79279 33.918 11.082 43.2072 22.5 43.2072C33.918 43.2072 43.2072 33.918 43.2072 22.5C43.2072 11.082 33.918 1.79279 22.5 1.79279Z" fill="black"/>
<path d="M22.5003 34.0638C16.124 34.0638 10.9365 28.8763 10.9365 22.5C10.9365 16.1238 16.124 10.9363 22.5003 10.9363C28.8766 10.9363 34.0641 16.1238 34.0641 22.5C34.0641 28.8763 28.8766 34.0638 22.5003 34.0638ZM22.5003 12.7292C17.1126 12.7292 12.7294 17.1124 12.7294 22.5C12.7294 27.8877 17.1126 32.2709 22.5003 32.2709C27.888 32.2709 32.2712 27.8877 32.2712 22.5C32.2712 17.1124 27.888 12.7292 22.5003 12.7292Z" fill="black"/>
<path d="M22.5 26.8028C20.1275 26.8028 18.1973 24.8726 18.1973 22.5C18.1973 20.1274 20.1275 18.1973 22.5 18.1973C24.8726 18.1973 26.8028 20.1274 26.8028 22.5C26.8028 24.8726 24.8726 26.8028 22.5 26.8028ZM22.5 19.9901C21.116 19.9901 19.9901 21.116 19.9901 22.5C19.9901 23.8841 21.116 25.01 22.5 25.01C23.8841 25.01 25.01 23.8841 25.01 22.5C25.01 21.116 23.8841 19.9901 22.5 19.9901Z" fill="black"/>
<path d="M40.787 23.3963C40.292 23.3963 39.8907 22.9949 39.8907 22.4999C39.8907 14.6844 34.6327 7.78642 27.1042 5.72512C26.6267 5.59442 26.3456 5.10127 26.4764 4.62385C26.6071 4.14634 27.1005 3.86509 27.5778 3.99596C35.8829 6.26995 41.6834 13.8791 41.6834 22.4999C41.6834 22.9949 41.2821 23.3963 40.787 23.3963Z" fill="black"/>
<path d="M23.7558 5.15189C23.7353 5.15189 23.7149 5.15128 23.6942 5.14996C23.2995 5.12307 22.8976 5.10953 22.4999 5.10953C22.0048 5.10953 21.6035 4.70813 21.6035 4.21313C21.6035 3.71813 22.0048 3.31665 22.4999 3.31665C22.9379 3.31665 23.3806 3.33159 23.8155 3.36104C24.3094 3.39452 24.6827 3.82211 24.6492 4.31597C24.6172 4.78935 24.2233 5.15189 23.7558 5.15189Z" fill="black"/>
</g>
<defs>
<clipPath id="clip0_155_1174">
<rect width="45" height="45" fill="white"/>
</clipPath>
</defs>
</svg>
