<svg width="45" height="38" viewBox="0 0 45 38" fill="none" xmlns="http://www.w3.org/2000/svg">
<path d="M22.6943 27.9602L22.6957 27.9597C19.538 24.6548 21.9194 19.1986 26.4285 19.1857C29.2996 19.1775 31.6297 21.504 31.6297 24.3751C31.6297 20.0633 36.5893 17.6456 39.982 20.2754L41.0286 19.1869L41.0256 19.1857C43.0138 17.1047 44.1785 14.2293 43.9873 11.0815C43.6458 5.45807 38.915 1.00713 33.2848 0.991012C27.3309 0.97397 22.499 5.79851 22.499 11.7523C22.499 5.79851 17.667 0.97397 11.7132 0.991012C6.08301 1.00713 1.35218 5.45807 1.01064 11.0815C0.819474 14.2294 1.98416 17.1047 3.97239 19.1857L3.96949 19.1869L18.7087 34.5172C20.7778 36.6695 24.2201 36.6695 26.2894 34.5172L27.6438 33.1084L22.6943 27.9602Z" fill="#FF7876"/>
<path d="M36.8304 19.1856C33.9592 19.1774 31.6292 21.5039 31.6292 24.375C31.6292 21.5039 29.2992 19.1774 26.428 19.1856C21.9127 19.1985 19.5415 24.6589 22.6952 27.9596L22.6938 27.9601L29.8014 35.3528C30.7992 36.3906 32.4592 36.3906 33.457 35.3528L40.5646 27.9601L40.5632 27.9596C43.7208 24.6547 41.3394 19.1985 36.8304 19.1856Z" fill="#FFDB77"/>
<path d="M11.7254 3.96313C11.7245 3.96313 11.7234 3.96313 11.7225 3.96313C7.66393 3.97489 4.22334 7.19473 3.97646 11.2616C3.94332 11.8079 4.35892 12.2775 4.90483 12.3107C5.46433 12.3425 5.92073 11.9169 5.95321 11.3819C6.13632 8.36665 8.70703 5.95319 11.7282 5.94473C12.275 5.94315 12.717 5.49835 12.7156 4.95116C12.714 4.4049 12.2709 3.96313 11.7254 3.96313Z" fill="#414042"/>
<path d="M41.3958 20.234C43.9037 17.6253 45.1962 14.6493 44.9758 11.0213C44.6015 4.85888 39.4675 0.0177023 33.2879 0C33.2761 0 33.265 0 33.2533 0C28.3411 0 24.2727 2.98627 22.4992 7.01315C20.7186 2.96989 16.6418 0 11.745 0C11.7335 0 11.722 0 11.7104 0C5.5308 0.0175702 0.396779 4.85875 0.0225002 11.0211C-0.180812 14.369 1.00143 17.5193 3.25608 19.8736L17.9953 35.2039C19.1845 36.4407 20.7841 37.122 22.4993 37.122C25.4246 37.122 26.9079 35.3029 27.6439 34.5373L29.0884 36.0398C30.478 37.4849 32.7826 37.4838 34.1711 36.0398C34.2028 36.0067 41.2907 28.6362 41.3202 28.6012C43.5681 26.2045 43.5112 22.571 41.3958 20.234ZM22.4993 35.1402C21.3276 35.1402 20.2349 34.675 19.4224 33.8299C-0.266098 13.3519 7.19453 21.1136 4.68838 18.5007C2.78688 16.5107 1.83184 13.897 1.99925 11.1413C2.31029 6.01957 6.57852 1.99613 11.7162 1.98147C11.726 1.98147 11.7352 1.98147 11.745 1.98147C17.1415 1.98147 21.5091 6.35142 21.5091 11.7521C21.5091 12.2994 21.9525 12.7429 22.4993 12.7429C23.0463 12.7429 23.4894 12.2994 23.4894 11.7521C23.4894 6.35169 27.8566 1.98147 33.2536 1.98147C33.2631 1.98147 33.2728 1.98147 33.2823 1.98147C38.4201 1.99613 42.6882 6.01957 42.9993 11.1413C43.1667 13.897 42.2117 16.5106 40.3103 18.5007C40.3103 18.5007 40.3266 18.4879 39.8428 18.9911C37.0156 17.3942 33.4236 18.2562 31.6301 21.0145C30.5199 19.3071 28.615 18.1945 26.4439 18.1945C26.438 18.1945 26.4319 18.1945 26.426 18.1945C21.0769 18.21 18.2313 24.6474 21.9395 28.601C21.9529 28.6166 21.9667 28.6319 21.981 28.6469L26.2702 33.108C25.5282 33.8797 24.5489 35.1402 22.4993 35.1402ZM39.8141 27.3124L32.7442 34.6657C32.1346 35.2996 31.1246 35.2989 30.5155 34.6657C29.2609 33.3608 28.0695 32.1216 23.4457 27.3125C23.4347 27.2997 23.4232 27.2872 23.4114 27.2749C20.8691 24.6139 22.7582 20.1871 26.4314 20.1764C26.4355 20.1764 26.4394 20.1764 26.4435 20.1764C28.7631 20.1764 30.6397 22.0545 30.6397 24.375C30.6397 24.9223 31.0829 25.3658 31.6298 25.3658C32.1768 25.3658 32.62 24.9223 32.62 24.375C32.62 22.0795 34.4667 20.1764 36.828 20.1764C40.2351 20.1862 42.5102 24.2066 39.8141 27.3124Z" fill="#414042"/>
</svg>
