<svg width="72" height="69" viewBox="0 0 72 69" fill="none" xmlns="http://www.w3.org/2000/svg">
<path d="M20.25 31.3125C23.9779 31.3125 27 28.4583 27 24.9375C27 21.4167 23.9779 18.5625 20.25 18.5625C16.5221 18.5625 13.5 21.4167 13.5 24.9375C13.5 28.4583 16.5221 31.3125 20.25 31.3125Z" fill="#6096BA"/>
<path d="M37.5412 36.4125L41.805 35.8387C42.1762 35.7856 42.5137 35.6581 42.8062 35.4775C43.3237 40.3012 47.6325 44.0625 52.875 44.0625C58.4662 44.0625 63 39.7806 63 34.5C63 29.2194 58.4662 24.9375 52.875 24.9375C48.2175 24.9375 44.3025 27.9019 43.1213 31.9394C42.6825 31.5463 42.1088 31.3125 41.4675 31.3125H37.26C37.71 29.2937 38.5988 27.4131 39.825 25.7875C40.7588 25.6494 41.6588 25.2562 42.3675 24.5763C43.0875 23.9069 43.5037 23.0569 43.65 22.175C45.5512 20.9 47.7787 20.0075 50.175 19.625C50.94 20.1562 51.8625 20.475 52.875 20.475C53.8875 20.475 54.81 20.1562 55.575 19.625C57.9713 20.0075 60.1988 20.9 62.1 22.175C62.2463 23.0569 62.6625 23.9069 63.3825 24.5763C64.0912 25.2562 64.9912 25.6494 65.925 25.7875C67.275 27.5831 68.22 29.6869 68.625 31.95C68.0625 32.6725 67.725 33.5437 67.725 34.5C67.725 35.4563 68.0625 36.3275 68.625 37.05C68.22 39.3131 67.275 41.4169 65.925 43.2125C64.9912 43.3506 64.0912 43.7437 63.3825 44.4237C62.6625 45.0931 62.2463 45.9431 62.1 46.825C60.1988 48.1 57.9713 48.9925 55.575 49.375C54.81 48.8438 53.8875 48.525 52.875 48.525C51.8625 48.525 50.94 48.8438 50.175 49.375C47.7787 48.9925 45.5512 48.1 43.65 46.825C43.5037 45.9431 43.0875 45.0931 42.3675 44.4237C41.6588 43.7437 40.7588 43.3506 39.825 43.2125C38.475 41.4169 37.53 39.3131 37.125 37.05C37.2825 36.8481 37.4175 36.6356 37.5412 36.4125Z" fill="#274C77"/>
<path d="M42.8066 35.4775C43.3241 40.3012 47.6329 44.0625 52.8754 44.0625C58.4666 44.0625 63.0004 39.7806 63.0004 34.5C63.0004 29.2194 58.4666 24.9375 52.8754 24.9375C48.2179 24.9375 44.3029 27.9019 43.1216 31.9394L43.1666 31.9819C43.6054 32.3962 43.8754 32.9594 43.8754 33.5862C43.8754 34.3725 43.4591 35.0737 42.8066 35.4775Z" fill="#F5DD90"/>
<path d="M41.4672 31.3125H15.7159C12.9147 31.3125 10.2709 32.5344 8.5722 34.6381C6.31095 37.4325 3.81345 42.3094 3.43095 50.3631C3.3747 51.5531 4.3872 52.5519 5.65845 52.5519H5.7147C6.91845 52.5519 7.8747 51.6913 7.99845 50.5756C8.69595 44.2644 12.3859 37.6769 12.3859 37.6769V52.5519H28.1359V39.515C28.1359 38.4525 28.9572 37.56 30.0709 37.4113L41.8159 35.8281C43.0084 35.6688 43.8859 34.7125 43.8859 33.5756C43.8859 32.3219 42.8059 31.3019 41.4784 31.3019L41.4672 31.3125Z" fill="#6096BA"/>
<path d="M52.875 15.375C56.6029 15.375 59.625 12.5208 59.625 9C59.625 5.47918 56.6029 2.625 52.875 2.625C49.1471 2.625 46.125 5.47918 46.125 9C46.125 12.5208 49.1471 15.375 52.875 15.375Z" fill="#A3CEF1"/>
<path d="M52.875 66.375C56.6029 66.375 59.625 63.5208 59.625 60C59.625 56.4792 56.6029 53.625 52.875 53.625C49.1471 53.625 46.125 56.4792 46.125 60C46.125 63.5208 49.1471 66.375 52.875 66.375Z" fill="#A3CEF1"/>
</svg>
