<svg width="78" height="71" viewBox="0 0 78 71" fill="none" xmlns="http://www.w3.org/2000/svg">
<path d="M39 54.7292L30.875 45.8542V36.9792H47.125V45.8542L39 54.7292Z" fill="#FF9800"/>
<path d="M53.625 31.0625C55.4199 31.0625 56.875 29.738 56.875 28.1042C56.875 26.4703 55.4199 25.1458 53.625 25.1458C51.8301 25.1458 50.375 26.4703 50.375 28.1042C50.375 29.738 51.8301 31.0625 53.625 31.0625Z" fill="#FFA726"/>
<path d="M24.375 31.0625C26.1699 31.0625 27.625 29.738 27.625 28.1042C27.625 26.4703 26.1699 25.1458 24.375 25.1458C22.5801 25.1458 21.125 26.4703 21.125 28.1042C21.125 29.738 22.5801 31.0625 24.375 31.0625Z" fill="#FFA726"/>
<path d="M53.625 19.2292C53.625 7.98749 24.375 11.8333 24.375 19.2292C24.375 20.8562 24.375 27.9562 24.375 29.5833C24.375 36.9792 30.875 42.8958 39 42.8958C47.125 42.8958 53.625 36.9792 53.625 29.5833C53.625 27.9562 53.625 20.8562 53.625 19.2292Z" fill="#FFB74D"/>
<path d="M39 5.91666C29.0875 5.91666 22.75 13.1646 22.75 22.1875C22.75 23.3708 22.75 25.5896 22.75 25.5896L26 28.1042V20.7083L45.5 14.7917L52 20.7083V28.1042L55.25 25.5896C55.25 25.5896 55.25 23.3708 55.25 22.1875C55.25 16.2708 53.625 10.3542 45.5 8.87499L43.875 5.91666H39Z" fill="#FF5722"/>
<path d="M45.5 29.5833C46.3975 29.5833 47.125 28.9211 47.125 28.1042C47.125 27.2872 46.3975 26.625 45.5 26.625C44.6025 26.625 43.875 27.2872 43.875 28.1042C43.875 28.9211 44.6025 29.5833 45.5 29.5833Z" fill="#784719"/>
<path d="M32.5 29.5833C33.3975 29.5833 34.125 28.9211 34.125 28.1042C34.125 27.2872 33.3975 26.625 32.5 26.625C31.6025 26.625 30.875 27.2872 30.875 28.1042C30.875 28.9211 31.6025 29.5833 32.5 29.5833Z" fill="#784719"/>
<path d="M47.125 45.8542L39 47.3333L30.875 45.8542C30.875 45.8542 13 48.8125 13 65.0833H65C65 48.8125 47.125 45.8542 47.125 45.8542Z" fill="#CFD8DC"/>
<path d="M37.375 51.7708L35.75 65.0833H42.25L40.625 51.7708L42.25 50.2917L39 47.3333L35.75 50.2917L37.375 51.7708Z" fill="#3F51B5"/>
</svg>
