<svg width="40" height="41" viewBox="0 0 40 41" fill="none" xmlns="http://www.w3.org/2000/svg">
<g clip-path="url(#clip0_64_1788)">
<path d="M39.2033 13.5231H26.6921V1.01196H13.308V13.5231H0.796875V26.9072H13.308V39.4184H26.6921V26.9072H39.2033V13.5231Z" fill="#FF422D"/>
<path d="M26.692 40.2151H13.308C12.8679 40.2151 12.5112 39.8584 12.5112 39.4183V27.7039H0.796797C0.356719 27.7039 0 27.3472 0 26.9071V13.5231C0 13.083 0.356719 12.7263 0.796797 12.7263H12.5112V1.01188C12.5112 0.571807 12.8679 0.215088 13.308 0.215088H26.692C27.1321 0.215088 27.4888 0.571807 27.4888 1.01188V12.7263H39.2032C39.6433 12.7263 40 13.083 40 13.5231V26.9071C40 27.3472 39.6433 27.7039 39.2032 27.7039H27.4888V39.4183C27.4888 39.8584 27.1321 40.2151 26.692 40.2151ZM14.1048 38.6215H25.8952V26.9071C25.8952 26.467 26.252 26.1103 26.692 26.1103H38.4064V14.3199H26.692C26.252 14.3199 25.8952 13.9631 25.8952 13.5231V1.80868H14.1048V13.5231C14.1048 13.9631 13.748 14.3199 13.308 14.3199H1.59359V26.1103H13.308C13.748 26.1103 14.1048 26.467 14.1048 26.9071V38.6215Z" fill="black"/>
<path d="M12.351 16.7091H6.37492C5.93484 16.7091 5.57812 16.3524 5.57812 15.9123C5.57812 15.4722 5.93484 15.1155 6.37492 15.1155H12.351C12.7911 15.1155 13.1478 15.4722 13.1478 15.9123C13.1478 16.3523 12.7911 16.7091 12.351 16.7091Z" fill="black"/>
<path d="M3.74465 16.7091H3.26652C2.82645 16.7091 2.46973 16.3524 2.46973 15.9123C2.46973 15.4722 2.82645 15.1155 3.26652 15.1155H3.74465C4.18473 15.1155 4.54145 15.4722 4.54145 15.9123C4.54145 16.3523 4.18473 16.7091 3.74465 16.7091Z" fill="black"/>
</g>
<defs>
<clipPath id="clip0_64_1788">
<rect width="40" height="40" fill="white" transform="translate(0 0.215088)"/>
</clipPath>
</defs>
</svg>
