<svg width="61" height="55" viewBox="0 0 61 55" fill="none" xmlns="http://www.w3.org/2000/svg">
<path d="M15.8224 42.5928C16.6527 42.2747 17.5585 41.9578 18.5513 41.6738C18.5513 41.6738 19.2178 47.3435 24.8395 47.3435C30.4613 47.3435 30.4991 42.8086 30.4991 42.8086C30.4991 42.8086 30.5368 47.3434 36.1586 47.3434C41.7804 47.3434 42.4469 41.6737 42.4469 41.6737C43.441 41.9577 44.3581 42.2632 45.1884 42.5813C54.3567 46.0734 54.3946 51.3126 54.3946 51.3126C54.3946 51.3126 54.3946 52.5598 54.3946 54.148H6.60352C6.60352 52.5598 6.60352 51.3126 6.60352 51.3126C6.60352 51.3126 6.70431 46.1075 15.8224 42.5928Z" fill="#31C0D8"/>
<path d="M36.7874 34.6658V38.2726C36.7874 38.2726 34.1971 42.8086 30.4992 42.8086C26.8013 42.8086 24.2109 38.2726 24.2109 38.2726V34.6658C26.0467 35.5279 28.1595 36.0039 30.4992 36.0039C32.8389 36.0039 34.9517 35.528 36.7874 34.6658Z" fill="#FFE1B2"/>
<path d="M24.2117 34.6658C19.5084 32.4779 16.666 27.8055 16.666 22.3972V14.4589C16.666 14.4589 29.3596 13.6285 34.2733 16.1606C38.6743 18.428 44.3338 14.4589 44.3338 14.4589V22.3972C44.3338 27.8056 41.4915 32.4779 36.7882 34.6658C34.9524 35.528 32.8396 36.004 30.4999 36.004C28.1602 36.004 26.0474 35.5281 24.2117 34.6658Z" fill="#FFE1B2"/>
<path d="M16.6659 22.3972C16.6659 27.8057 19.5082 32.478 24.2115 34.6658V38.2726C22.8407 39.6562 18.552 41.6738 18.552 41.6738C17.5592 41.9579 16.6533 42.2748 15.8231 42.5928C13.0815 39.8824 12.8926 34.8704 12.8926 34.8704V9.92401C12.8926 9.92401 13.4973 3.93052 19.4441 3.69537L20.1245 11.0577H40.8754L41.5558 3.69312C48.7171 3.89077 48.1073 9.92401 48.1073 9.92401V34.8703C48.1073 34.8703 47.9184 39.8709 45.1893 42.5813C44.359 42.2633 43.4418 41.9576 42.4478 41.6737C42.4478 41.6737 38.1591 39.6562 36.7883 38.2725V34.6657C41.4916 32.4779 44.3339 27.8055 44.3339 22.3971V14.4588C44.3339 14.4588 38.6744 18.428 34.2734 16.1605C29.3597 13.6283 16.6661 14.4588 16.6661 14.4588V22.3972H16.6659Z" fill="#FFD248"/>
<path d="M41.5565 3.69302L40.8761 11.0577H20.1254L19.4449 3.69539L19.1816 0.851929H41.8198L41.5565 3.69302Z" fill="#E7ECED"/>
<path d="M36.7882 38.2726C38.1591 39.6562 42.4478 41.6738 42.4478 41.6738C42.4478 41.6738 41.7813 47.3435 36.1595 47.3435C30.5378 47.3435 30.5 42.8086 30.5 42.8086C34.1979 42.8086 36.7882 38.2726 36.7882 38.2726Z" fill="#AFB6BB"/>
<path d="M30.5005 42.8086C30.5005 42.8086 30.4627 47.3434 24.841 47.3434C19.2192 47.3434 18.5527 41.6737 18.5527 41.6737C18.5527 41.6737 22.8414 39.6562 24.2123 38.2725C24.2123 38.2726 26.8026 42.8086 30.5005 42.8086Z" fill="#AFB6BB"/>
<path d="M46.6707 42.2474C48.86 39.293 49.045 35.0952 49.0524 34.8993L49.0528 9.9565C49.0829 9.56753 49.2075 6.92742 47.268 4.95247C46.1399 3.80338 44.5622 3.11846 42.5779 2.90759L42.8469 0H18.1544L18.4258 2.93412C16.1066 3.27347 14.2788 4.49281 13.1035 6.5001C12.1319 8.15955 11.9592 9.77872 11.9523 9.84672L11.9484 9.88539V34.8703L11.9489 34.8993C11.9563 35.0957 12.1415 39.3067 14.3436 42.2637C5.86627 45.9381 5.66468 51.0723 5.66028 51.2979L5.66016 55H55.3411V51.3071C55.3394 51.0797 55.1987 45.9058 46.6707 42.2474ZM40.7923 1.70403L40.0065 10.2057H20.9947L20.2087 1.70403H40.7923ZM13.8382 9.96789C13.8955 9.50254 14.5218 5.34445 18.5837 4.64138L19.0983 10.2058H17.2954V11.9099H43.7058V10.2057H41.9031L42.4208 4.60808C43.8976 4.77737 45.0472 5.26711 45.8428 6.07181C47.3569 7.60289 47.1685 9.82749 47.1668 9.84683L47.1629 9.8855V34.853C47.1503 35.1059 46.9175 39.0982 44.902 41.5544C44.2393 41.3181 43.5397 41.0937 42.8138 40.8845C41.6904 40.3513 38.9252 38.9389 37.7339 37.9252V35.1711C39.9748 34.0159 41.8408 32.2905 43.1524 30.1514C44.544 27.882 45.2795 25.2006 45.2795 22.3971L45.2787 12.7226L43.7554 13.7857C43.7035 13.8218 38.535 17.3747 34.7432 15.4208C29.6382 12.7902 17.1286 13.5746 16.5987 13.6091L15.7221 13.6664V22.3971C15.7221 25.2006 16.4576 27.882 17.8492 30.1514C19.1608 32.2905 21.0268 34.016 23.2677 35.1712V37.9252C22.0761 38.939 19.3103 40.3515 18.1873 40.8847C17.5116 41.0801 16.8259 41.3048 16.1094 41.5649C14.0827 39.1059 13.8508 35.1001 13.8386 34.853V9.96789H13.8382ZM30.5006 41.9566C27.7928 41.9566 25.6448 38.8242 25.1573 38.0534V35.9834C26.8139 36.5621 28.6044 36.856 30.5006 36.856C32.3973 36.856 34.1884 36.562 35.844 35.9835V38.0533C35.3555 38.8257 33.2079 41.9566 30.5006 41.9566ZM36.3523 33.9102C34.5979 34.7342 32.6292 35.1521 30.5006 35.1521C28.3721 35.1521 26.4033 34.7343 24.6489 33.9103L24.6457 33.9087C20.3069 31.8902 17.6117 27.4794 17.6117 22.3971V15.2633C18.8042 15.2102 21.0812 15.1388 23.615 15.2122C28.4083 15.3512 31.932 15.935 33.8053 16.9003C34.9478 17.4889 36.1479 17.716 37.3207 17.7159C39.6979 17.7157 41.9608 16.7825 43.3895 16.0364V22.3972C43.3895 27.4794 40.6942 31.8903 36.3523 33.9102ZM23.9963 39.6059C24.9307 40.8876 26.8591 43.0659 29.441 43.5584C29.1604 44.6397 28.1912 46.4914 24.8411 46.4914C21.0554 46.4914 19.9125 43.4233 19.5994 42.1348C20.6209 41.6316 22.6254 40.5996 23.9963 39.6059ZM37.0051 39.6059C38.374 40.5979 40.3745 41.6286 41.3975 42.1326C41.2756 42.619 41.0347 43.364 40.5855 44.0962C39.6107 45.6856 38.1219 46.4914 36.1602 46.4914C34.2223 46.4914 32.8486 45.8912 32.0773 44.7074C31.8145 44.3041 31.6612 43.8931 31.5713 43.5565C34.1478 43.0598 36.0719 40.8858 37.0051 39.6059ZM53.4513 53.296H7.55008V51.3234C7.55699 51.162 7.84627 46.5945 16.1935 43.3768C16.763 43.1588 17.3058 42.9676 17.8367 42.7946C18.0044 43.3809 18.2889 44.1497 18.7619 44.9208C20.0758 47.0629 22.1779 48.1953 24.8412 48.1953C27.0937 48.1953 28.5776 47.5524 29.5558 46.7112V51.8793H31.4458V46.7112C32.4239 47.5523 33.9079 48.1953 36.1604 48.1953C38.8235 48.1953 40.9257 47.0629 42.2397 44.9208C42.7137 44.1478 42.9987 43.3771 43.1662 42.7901C43.7427 42.9735 44.2987 43.1653 44.8225 43.3661C47.263 44.2955 50.5496 45.9557 52.3483 48.5862C53.3806 50.0961 53.4484 51.2531 53.4516 51.3223V53.296H53.4513Z" fill="#231F20"/>
<path d="M31.4464 22.3971H29.5566V27.7851H33.0176V26.0811H31.4464V22.3971Z" fill="#231F20"/>
<path d="M27.3574 6.80675H29.556V8.78911H31.4459V6.80675H33.6457V5.10282H31.4459V3.11938H29.556V5.10282H27.3574V6.80675Z" fill="#231F20"/>
</svg>
