<svg width="48" height="39" viewBox="0 0 48 39" fill="none" xmlns="http://www.w3.org/2000/svg">
<g clip-path="url(#clip0_64_1917)">
<path d="M12.4515 30.6517C13.1048 30.4262 13.8176 30.2015 14.5988 30.0001C14.5988 30.0001 15.1232 34.0204 19.5469 34.0204C23.9706 34.0204 24.0003 30.8048 24.0003 30.8048C24.0003 30.8048 24.03 34.0204 28.4537 34.0204C32.8774 34.0204 33.4019 30 33.4019 30C34.1841 30.2014 34.9058 30.418 35.5591 30.6436C42.7736 33.1198 42.8034 36.8348 42.8034 36.8348C42.8034 36.8348 42.8034 37.7193 42.8034 38.8454H5.19727C5.19727 37.7193 5.19727 36.8348 5.19727 36.8348C5.19727 36.8348 5.27658 33.144 12.4515 30.6517Z" fill="#31C0D8"/>
<path d="M28.948 33.4209V35.9784C28.948 35.9784 26.9097 39.1949 23.9999 39.1949C21.0901 39.1949 19.0518 35.9784 19.0518 35.9784V33.4209C20.4963 34.0323 22.1588 34.3698 23.9999 34.3698C25.8409 34.3698 27.5035 34.0323 28.948 33.4209Z" fill="#FFE1B2"/>
<path d="M19.0518 33.4209C15.3509 31.8695 13.1143 28.5564 13.1143 24.7213V19.0924C13.1143 19.0924 23.1027 18.5036 26.9692 20.299C30.4322 21.9069 34.8856 19.0924 34.8856 19.0924V24.7213C34.8856 28.5564 32.649 31.8695 28.9481 33.4209C27.5036 34.0323 25.841 34.3698 23.9999 34.3698C22.1589 34.3698 20.4963 34.0323 19.0518 33.4209Z" fill="#FFE1B2"/>
<path d="M13.1147 24.2629C13.1147 28.098 15.3513 31.4111 19.0522 32.9625V35.52C17.9735 36.5011 14.5988 37.9318 14.5988 37.9318C13.8176 38.1332 13.1047 38.3579 12.4515 38.5834C10.2942 36.6615 10.1455 33.1075 10.1455 33.1075V15.4183C10.1455 15.4183 10.6214 11.1683 15.3008 11.0016L15.8362 16.2222H32.1648L32.7002 11C38.3353 11.1402 37.8555 15.4183 37.8555 15.4183V33.1074C37.8555 33.1074 37.7068 36.6533 35.5594 38.5753C34.906 38.3497 34.1842 38.133 33.4021 37.9317C33.4021 37.9317 30.0274 36.5011 28.9487 35.52V32.9624C32.6496 31.411 34.8862 28.0978 34.8862 24.2628V18.6339C34.8862 18.6339 30.4328 21.4483 26.9698 19.8405C23.1033 18.045 13.1149 18.6339 13.1149 18.6339V24.2629H13.1147Z" fill="#FFD248"/>
<path d="M32.6992 34.0146L32.1638 39.2368H15.8354L15.3 34.0163L15.0928 32H32.9064L32.6992 34.0146Z" fill="#E7ECED"/>
<path d="M28.9481 33C30.0268 33.9811 33.4015 35.4118 33.4015 35.4118C33.4015 35.4118 32.8771 39.4321 28.4534 39.4321C24.0297 39.4321 24 36.2164 24 36.2164C26.9098 36.2164 28.9481 33 28.9481 33Z" fill="#AFB6BB"/>
<path d="M24.0002 36.2165C24.0002 36.2165 23.9704 39.4321 19.5468 39.4321C15.1231 39.4321 14.5986 35.4118 14.5986 35.4118C14.5986 35.4118 17.9734 33.9812 19.052 33C19.052 33.0001 21.0904 36.2165 24.0002 36.2165Z" fill="#AFB6BB"/>
<path d="M36.7238 29.9573C38.4464 27.8623 38.592 24.8857 38.5978 24.7468L38.5982 7.06007C38.6218 6.78425 38.7199 4.91217 37.1937 3.51175C36.306 2.69694 35.0646 2.21127 33.5032 2.06174L33.7148 0H14.2847L14.4983 2.08056C12.6733 2.32119 11.235 3.18581 10.3102 4.60916C9.54562 5.78586 9.40978 6.934 9.40434 6.98222L9.40125 7.00964V24.7262L9.40163 24.7468C9.40744 24.886 9.55322 27.8721 11.286 29.9688C4.61531 32.5743 4.45669 36.2149 4.45322 36.3749L4.45312 39H43.5463V36.3814C43.545 36.2202 43.4343 32.5514 36.7238 29.9573ZM32.0981 1.20831L31.4797 7.23678H16.5197L15.9011 1.20831H32.0981ZM10.8883 7.06814C10.9334 6.73816 11.4262 3.7897 14.6225 3.29116L15.0274 7.23686H13.6087V8.44518H34.3907V7.23678H32.9722L33.3795 3.26754C34.5416 3.38759 35.4462 3.73486 36.0723 4.30546C37.2637 5.39114 37.1154 6.96858 37.1141 6.9823L37.111 7.00972V24.714C37.1011 24.8933 36.9179 27.7242 35.3319 29.4659C34.8105 29.2983 34.26 29.1392 33.6888 28.9909C32.8048 28.6127 30.6289 27.6112 29.6915 26.8924V24.9395C31.4548 24.1204 32.9231 22.8969 33.9552 21.3801C35.0502 19.7709 35.629 17.8695 35.629 15.8816L35.6284 9.02149L34.4297 9.77529C34.3889 9.80088 30.3218 12.3203 27.3382 10.9348C23.3211 9.0694 13.4775 9.62561 13.0605 9.65006L12.3707 9.69074V15.8816C12.3707 17.8695 12.9495 19.7709 14.0445 21.3801C15.0766 22.8969 16.5449 24.1204 18.3082 24.9396V26.8924C17.3706 27.6113 15.1943 28.6129 14.3106 28.9909C13.7788 29.1295 13.2393 29.2888 12.6755 29.4733C11.0807 27.7296 10.8983 24.8892 10.8886 24.714V7.06814H10.8883ZM23.9997 29.7511C21.869 29.7511 20.1788 27.5299 19.7951 26.9834V25.5155C21.0987 25.9259 22.5076 26.1343 23.9997 26.1343C25.4922 26.1343 26.9016 25.9258 28.2043 25.5156V26.9833C27.8199 27.531 26.13 29.7511 23.9997 29.7511ZM28.6043 24.0454C27.2238 24.6297 25.6747 24.926 23.9997 24.926C22.3248 24.926 20.7756 24.6298 19.3951 24.0455L19.3926 24.0443C15.9785 22.6131 13.8577 19.4854 13.8577 15.8816V10.823C14.796 10.7854 16.5878 10.7347 18.5815 10.7869C22.3533 10.8854 25.126 11.2993 26.6002 11.9838C27.4991 12.4012 28.4435 12.5623 29.3663 12.5622C31.2369 12.562 33.0175 11.9003 34.1418 11.3712V15.8817C34.1418 19.4854 32.0209 22.6131 28.6043 24.0454ZM18.8815 28.0842C19.6168 28.993 21.1343 30.5376 23.1659 30.8869C22.9451 31.6536 22.1825 32.9667 19.5463 32.9667C16.5674 32.9667 15.6681 30.791 15.4217 29.8774C16.2255 29.5206 17.8028 28.7888 18.8815 28.0842ZM29.118 28.0842C30.1952 28.7876 31.7693 29.5184 32.5743 29.8758C32.4784 30.2207 32.2888 30.749 31.9354 31.2682C31.1683 32.3952 29.9968 32.9667 28.4531 32.9667C26.9283 32.9667 25.8473 32.541 25.2404 31.7016C25.0336 31.4156 24.9129 31.1242 24.8423 30.8855C26.8696 30.5333 28.3837 28.9918 29.118 28.0842ZM42.0592 37.7917H5.94028V36.3929C5.94572 36.2785 6.17334 33.0397 12.7417 30.7581C13.1898 30.6035 13.6169 30.4679 14.0347 30.3453C14.1667 30.761 14.3905 31.3062 14.7627 31.8529C15.7966 33.3719 17.4507 34.1748 19.5464 34.1748C21.3188 34.1748 22.4865 33.719 23.2563 33.1225V36.7871H24.7434V33.1225C25.5131 33.7189 26.6809 34.1748 28.4533 34.1748C30.5489 34.1748 32.203 33.3719 33.237 31.8529C33.61 31.3048 33.8343 30.7583 33.9661 30.3421C34.4198 30.4721 34.8572 30.6081 35.2694 30.7505C37.1898 31.4095 39.776 32.5868 41.1913 34.452C42.0037 35.5227 42.057 36.3431 42.0595 36.3922V37.7917H42.0592Z" fill="#231F20"/>
<path d="M24.7429 15.8816H23.2559V19.7021H25.9792V18.4939H24.7429V15.8816Z" fill="#231F20"/>
<path d="M21.5264 4.82659H23.2564V6.23227H24.7435V4.82659H26.4745V3.61835H24.7435V2.21191H23.2564V3.61835H21.5264V4.82659Z" fill="#231F20"/>
</g>
<defs>
<clipPath id="clip0_64_1917">
<rect width="48" height="39" fill="white"/>
</clipPath>
</defs>
</svg>
