<svg width="32" height="34" viewBox="0 0 32 34" fill="none" xmlns="http://www.w3.org/2000/svg">
<path d="M30.2433 0.966309H1.08008V2.57701H30.2433V0.966309Z" fill="#2AB9F7"/>
<path d="M30.2433 25.7712H1.08008V27.0598H30.2433V25.7712Z" fill="#2AB9F7"/>
<path d="M19.6873 17.0819L15.8352 5.86621L10.3914 16.2949L7.76637 10.3588L2.71394 19.3285H1.08008V20.2949H3.37929L7.6472 12.7169L10.309 18.736L15.6271 8.54964L19.3798 19.4776L26.1755 9.01997H30.2433V8.05355H25.5541L19.6873 17.0819Z" fill="#FF422C"/>
<path d="M31.3234 28.0262V0H0V28.0262H14.7616V31.1178C14.0873 31.3037 13.5926 31.8597 13.5926 32.5233C13.5926 33.3377 14.3335 34.0003 15.2437 34.0003C16.1539 34.0003 16.8945 33.3377 16.8945 32.5233C16.8945 31.898 16.4563 31.3655 15.8417 31.1503V28.0262H31.3234ZM15.2437 33.0336C14.929 33.0336 14.6727 32.8045 14.6727 32.523C14.6727 32.2414 14.929 32.0124 15.2437 32.0124C15.5584 32.0124 15.8144 32.2414 15.8144 32.523C15.8144 32.8045 15.5584 33.0336 15.2437 33.0336ZM30.2433 0.966422V2.57712H1.08012V0.966422H30.2433ZM30.2433 3.54355V8.05351V9.01993V24.8048H1.08012V20.2949V19.3284V3.54355H30.2433ZM1.08012 25.7712H30.2433V27.0598H1.08012V25.7712Z" fill="black"/>
</svg>
