<svg width="71" height="69" viewBox="0 0 71 69" fill="none" xmlns="http://www.w3.org/2000/svg">
<g clip-path="url(#clip0_105_462)">
<path d="M29.9412 46.3719H24.8037V53.3648H29.9412V46.3719Z" fill="#FEBB8E"/>
<path d="M17.1893 46.3718H12.0518V53.3647H17.1893V46.3718Z" fill="#F9F0B5"/>
<path d="M22.9711 1.60352H19.0206C17.1814 1.60352 15.6904 3.31933 15.6904 5.43584V13.5212H26.3016V5.43584C26.3016 3.31933 24.8105 1.60352 22.9711 1.60352Z" fill="#F9F0B5"/>
<path d="M38.1581 12.362V44.0557C38.1581 46.9341 35.7223 49.2655 32.7184 49.2655H27.3723L16.7949 28.2088L27.3723 7.1521H32.7184C35.7223 7.1521 38.1581 9.48496 38.1581 12.362Z" fill="#FEBB8E"/>
<path d="M27.372 7.1521V49.2656H9.27564C6.27019 49.2656 3.83594 46.9342 3.83594 44.0558V12.362C3.83594 9.48496 6.27019 7.1521 9.27564 7.1521C9.27564 7.1521 27.372 7.1521 27.372 7.1521Z" fill="#FCD5A2"/>
<path d="M32.7178 11.4937C33.2179 11.4937 33.6244 11.8832 33.6244 12.362V21.3346L22.1768 31.2784L27.3717 11.4937H32.7178Z" fill="#FCD5A2"/>
<path d="M9.27578 11.4937C8.77587 11.4937 8.36914 11.8832 8.36914 12.362V21.3346L27.3721 31.2784V11.4937H9.27578Z" fill="#F9F0B5"/>
<path d="M60.6989 16.5631C60.3745 16.5631 60.0564 16.5864 59.7455 16.6304L54.9717 40.2028L65.9278 26.6228C66.7588 25.5708 67.2522 24.2606 67.2522 22.8395C67.2521 19.3732 64.3181 16.5631 60.6989 16.5631Z" fill="#ED2F49"/>
<path d="M50.197 16.6303C49.8863 16.5864 49.5682 16.563 49.2437 16.563C45.6245 16.563 42.6904 19.373 42.6904 22.8393C42.6904 24.2602 43.1837 25.5706 44.0149 26.6226L54.971 40.2026L50.197 16.6303Z" fill="#FE7074"/>
<path d="M63.7428 22.8394C63.7428 19.6841 62.0063 17.0737 59.7449 16.6304C57.661 16.9252 55.9167 18.1726 54.9711 19.8973C54.0255 18.1729 52.281 16.9253 50.1971 16.6304C47.9358 17.0738 46.1992 19.6843 46.1992 22.8394C46.1992 24.2602 46.5516 25.5707 47.1451 26.6227L54.9709 40.2027L62.7968 26.6227C63.3904 25.5705 63.7428 24.2602 63.7428 22.8394Z" fill="#FF455E"/>
<path d="M33.6249 21.3346V44.0556C33.6249 44.5346 33.2184 44.9239 32.7182 44.9239H27.3721L20.0254 33.1292L27.3721 21.3345H33.6249V21.3346Z" fill="#ED2F49"/>
<path d="M27.3721 21.3346V44.9239H9.27578C9.24403 44.9239 9.21379 44.9225 9.18356 44.9195C8.72567 44.8746 8.36914 44.5042 8.36914 44.0556V21.3346H27.3721Z" fill="#FF455E"/>
<path d="M34.7141 44.1647V21.4436C34.7141 20.8442 34.2067 20.3583 33.5809 20.3583H15.8799C15.2541 20.3583 14.7467 20.8442 14.7467 21.4436C14.7467 22.043 15.2541 22.529 15.8799 22.529H32.4475V43.9475H9.45801V22.5291H11.3469C11.9727 22.5291 12.4801 22.0431 12.4801 21.4438C12.4801 20.8444 11.9727 20.3584 11.3469 20.3584H8.32464C7.69881 20.3584 7.19141 20.8444 7.19141 21.4438V44.1647C7.19141 45.242 8.10651 46.1184 9.23128 46.1184H32.6741C33.7989 46.1184 34.7141 45.2419 34.7141 44.1647Z" fill="#1D2328"/>
<path d="M68.3415 22.7572C68.3415 18.6889 64.8857 15.379 60.6378 15.379C58.4224 15.379 56.3404 16.2944 54.8957 17.8414C53.4509 16.2944 51.3691 15.379 49.1535 15.379C44.9059 15.379 41.4499 18.6887 41.4499 22.7572C41.4499 24.3775 41.9885 25.9156 43.0073 27.2051L53.838 40.9159V55.1965C53.0447 61.4442 47.7163 66.3296 41.6805 66.3296C35.4965 66.3296 28.7143 61.8752 28.4614 55.2417V54.5584H29.8969C30.5228 54.5584 31.0302 54.0724 31.0302 53.473V50.4603H32.6743C36.2986 50.4603 39.2473 47.6363 39.2473 44.1649V12.4711C39.2473 8.9999 36.2987 6.17576 32.6743 6.17576H27.4355V4.32913C27.4355 2.13745 25.0642 0.5 22.944 0.5H18.961C16.4427 0.5 14.4699 2.18194 14.4699 4.329V6.17563H9.23128C5.60693 6.17563 2.6582 8.99964 2.6582 12.471V44.1647C2.6582 47.6359 5.6068 50.46 9.23128 50.46H10.8754V53.4727C10.8754 54.0721 11.3828 54.5581 12.0086 54.5581H17.1461C17.772 54.5581 18.2794 54.0721 18.2794 53.4727V50.46H23.6256V53.4727C23.6256 54.0721 24.133 54.5581 24.7588 54.5581H26.1944V55.2607C26.1944 55.2733 26.1945 55.2859 26.1949 55.2983C26.327 58.9372 28.1201 62.3225 31.2441 64.8305C34.1488 67.1626 37.9524 68.4999 41.6801 68.4999C45.2926 68.4999 48.764 67.0938 51.4547 64.5406C54.0255 62.1012 55.6739 58.8501 56.0966 55.3863C56.1017 55.3445 56.1044 55.3024 56.1044 55.2604V40.7244L66.7838 27.2051C67.8029 25.9156 68.3415 24.3775 68.3415 22.7572ZM16.7366 4.329C16.7366 3.38364 17.6929 2.67083 18.9611 2.67083H22.9442C23.9249 2.67083 25.169 3.45164 25.169 4.329V6.17563H16.7368V4.329H16.7366ZM24.7593 48.2893H17.1464C16.5206 48.2893 16.0132 48.7753 16.0132 49.3747V52.3874H13.1421V49.3747C13.1421 48.7753 12.6347 48.2893 12.0089 48.2893H9.23128C6.85665 48.2893 4.9248 46.4391 4.9248 44.1648V12.4711C4.9248 10.1968 6.85665 8.34659 9.23128 8.34659H32.6741C35.0488 8.34659 36.9806 10.1968 36.9806 12.4711V44.1648C36.9806 46.4391 35.0488 48.2893 32.6741 48.2893H29.8967C29.2708 48.2893 28.7634 48.7753 28.7634 49.3747V52.3874H25.8925V49.3747C25.8925 48.7753 25.3851 48.2893 24.7593 48.2893ZM64.9765 25.8954L54.8955 38.6571L44.8146 25.8954C44.0962 24.9861 43.7162 23.9007 43.7162 22.7573C43.7162 19.8859 46.1553 17.55 49.1533 17.55C51.1239 17.55 52.9448 18.5766 53.9052 20.2294C54.1053 20.5735 54.4842 20.7868 54.8953 20.7868C55.3066 20.7868 55.6854 20.5735 55.8855 20.2294C56.846 18.5766 58.6669 17.55 60.6374 17.55C63.6354 17.55 66.0745 19.8859 66.0745 22.7573C66.0748 23.9007 65.6949 24.9859 64.9765 25.8954Z" fill="#1D2328"/>
</g>
<defs>
<clipPath id="clip0_105_462">
<rect width="71" height="68" fill="white" transform="translate(0 0.5)"/>
</clipPath>
</defs>
</svg>
