<svg width="49" height="43" viewBox="0 0 49 43" fill="none" xmlns="http://www.w3.org/2000/svg">
<path d="M23.174 0.619159L23.0044 0.946804C22.8585 1.22888 22.6272 1.40428 22.3767 1.48105C22.2076 1.53305 22.03 1.53948 21.863 1.50356C21.6949 1.46743 21.5375 1.38745 21.4094 1.26877C21.2258 1.09808 21.105 0.848274 21.1065 0.533817C21.1073 0.363561 21.254 0.226328 21.4344 0.226757C21.6149 0.227507 21.7604 0.36592 21.7599 0.536176C21.7595 0.66912 21.8028 0.767864 21.8681 0.829083C21.9074 0.865428 21.9568 0.890302 22.0087 0.901452C22.0613 0.912817 22.1189 0.910458 22.1738 0.893626C22.265 0.865536 22.353 0.79456 22.4144 0.675875L22.6703 0.181835C22.7219 0.0747282 22.8362 0 22.969 0C24.369 0 30.833 0 32.2329 0C32.3658 0 32.48 0.0745138 32.5316 0.181835L32.7875 0.675875C32.8489 0.79456 32.9371 0.865536 33.0281 0.893626C33.0832 0.910458 33.1408 0.912817 33.1932 0.901452C33.245 0.890302 33.2947 0.865536 33.3338 0.829083C33.3993 0.767864 33.4426 0.669335 33.442 0.536176C33.4415 0.36592 33.5869 0.227507 33.7675 0.226757C33.9479 0.226328 34.0947 0.363776 34.0955 0.533817C34.0969 0.848381 33.9761 1.09808 33.7925 1.26877C33.6644 1.38745 33.5071 1.467 33.3389 1.50356C33.1721 1.53948 32.9943 1.53305 32.8252 1.48105C32.5746 1.40418 32.3436 1.22888 32.1976 0.946804L32.0277 0.619159H28.0474V36.4496H27.321V0.619159H23.1732H23.174Z" fill="#15BDB2"/>
<path d="M26.4779 30.7149C27.3404 30.7149 28.0397 30.067 28.0397 29.2677C28.0397 28.4685 27.3404 27.8206 26.4779 27.8206C25.6153 27.8206 24.916 28.4685 24.916 29.2677C24.916 30.067 25.6153 30.7149 26.4779 30.7149Z" fill="#FED298"/>
<path d="M34.294 10.7175L34.3071 16.9757C34.3411 22.2538 34.3701 26.9112 34.7195 30.9402H34.0388C33.7217 26.8996 33.7154 22.2481 33.6813 16.9802L33.668 10.7236L34.294 10.7175Z" fill="#FEFEFE"/>
<path d="M44.2177 16.3692C46.1837 16.9424 47.2842 18.9104 46.6766 20.7648C46.3975 21.6162 45.8083 22.2209 45.072 22.5931L44.5402 24.6743L41.5278 23.4888L41.9211 22.6728C40.2142 22.5305 39.4866 22.4442 40.0839 21.2343C39.8351 21.0949 39.7366 20.6508 40.0489 20.4651C40.0489 20.4651 39.9053 20.2504 39.9588 20.0878C40.0119 19.9251 40.28 19.6573 40.2878 19.654C39.615 19.5745 39.4487 19.2547 39.593 19.0285C39.7779 18.7393 40.8842 18.3777 41.0761 17.5235C41.2127 16.9148 41.6629 16.4896 41.8514 16.4207C42.5868 16.1695 43.4124 16.1337 44.2175 16.3687L44.2177 16.3692Z" fill="#FED298"/>
<path d="M41.8551 16.4204C41.8551 16.4204 44.3771 16.4192 44.8935 17.2677C45.4099 18.1162 44.231 18.2841 44.6406 18.7798C45.0501 19.2756 44.6862 20.4118 44.6862 20.4118L45.1365 20.4674C45.1365 20.4674 45.3201 19.7466 45.8947 20.0284C46.4696 20.3102 45.9424 21.4444 45.2783 21.7248C44.6141 22.0053 45.131 22.684 45.131 22.684C47.5985 21.2246 47.9514 18.1677 46.9144 16.916C45.7718 15.5367 42.2387 14.902 41.8545 16.4206L41.8551 16.4204Z" fill="#666666"/>
<path d="M25.1787 30.2461H33.9706L37.6645 25.4629C40.4807 20.4462 47.6065 24.0543 44.3095 28.8021L40.27 34.6183C39.3123 35.9976 38.4361 36.6165 36.65 36.541H25.1789V30.2462H25.1787V30.2461Z" fill="#15BDB2"/>
<path d="M0 29.8242H24.396V37.4222H3.82523C2.16178 35.1167 0.86144 32.5595 0 29.8242Z" fill="#FAD24D"/>
<path d="M3.80273 37.3918H46.6152V39.5276H5.50629C4.90317 38.8428 4.33415 38.1302 3.80273 37.3918Z" fill="#FEFEFE"/>
<path d="M47.8037 27.6102H47.8042C48.458 27.6102 48.9929 28.1146 48.9929 28.7316V40.8887C48.2432 41.6337 47.4487 42.3383 46.6152 43.0001V28.7313C46.6152 28.1143 47.1499 27.6099 47.804 27.6099L47.8037 27.6102Z" fill="#FEFEFE"/>
<path d="M5.50625 39.528H46.6149V38.9651H5.02246C5.18077 39.155 5.34238 39.3421 5.50625 39.528Z" fill="#D9DADA"/>
<path d="M25.3845 29.8604V37.392H23.5547V29.8604C23.5547 29.2523 25.3845 29.2523 25.3845 29.8604Z" fill="#FFF985"/>
<path d="M45.8186 28.5208L45.819 28.521C46.679 29.0696 46.9065 30.1822 46.3246 30.9935L43.2323 35.3059C42.6508 36.1172 41.4715 36.3318 40.6115 35.7831L40.6113 35.7829C39.7513 35.234 39.5238 34.1217 40.1057 33.3105L43.1978 28.998C43.7794 28.1869 44.9586 27.9721 45.8186 28.5208Z" fill="#FAD24D"/>
<path d="M40.7309 23.9247L34.5182 31.3422L28.1927 28.1622C26.2784 27.1997 24.9498 29.5668 26.5071 30.5469L34.1463 35.3532C34.749 35.7323 35.5416 35.6482 36.0441 35.1917C36.2311 35.0834 36.401 34.9435 36.5442 34.7724L43.7466 26.173C45.3232 24.2909 42.3068 22.043 40.7309 23.9247Z" fill="#21D0C3"/>
<path d="M25.3848 35.9829H46.6157V37.3922H25.3848V35.9829Z" fill="#EEF3F7"/>
<path d="M30.085 3.54175H35.9909V9.61551C35.9909 10.2218 35.4654 10.7176 34.8228 10.7176H31.2535C30.6105 10.7176 30.0851 10.2216 30.0851 9.61551V3.54175H30.085Z" fill="#D9DADA"/>
<path d="M30.085 3.54175H35.9909V9.06336C35.9909 9.74352 35.4013 10.2996 34.6805 10.2996H30.6758C30.544 10.2996 30.4169 10.2807 30.2968 10.2465C30.1635 10.0675 30.0851 9.84955 30.0851 9.61561V3.54175H30.085Z" fill="#EEF3F7"/>
<path d="M30.085 4.78857H35.9909V8.05098H30.085V4.78857Z" fill="#FEFEFE"/>
<path d="M31.5117 10.7178H32.1627V11.4321H31.5117V10.7178Z" fill="#EEF3F7"/>
<path d="M31.0586 11.4319H32.6154V12.0245H31.0586V11.4319Z" fill="#FEFEFE"/>
<path d="M33.0373 4.60913C34.0973 4.60913 34.9567 5.41967 34.9567 6.41965C34.9567 7.41963 34.0975 8.23016 33.0373 8.23016C31.9773 8.23016 31.1182 7.41963 31.1182 6.41965C31.1182 5.41967 31.9774 4.60913 33.0373 4.60913Z" fill="#FF5B62"/>
<path d="M32.8115 0.874757C32.8115 0.755642 32.9143 0.658936 33.0403 0.658936C33.1666 0.658936 33.2693 0.755642 33.2693 0.874757V3.54191C33.2693 3.66102 33.1666 3.75773 33.0403 3.75773C32.9143 3.75773 32.8115 3.66135 32.8115 3.54191V0.874757Z" fill="#FEFEFE"/>
<path d="M32.7025 5.2561H33.3725V6.10341H34.2711V6.73597H33.3725V7.58393H32.7025V6.73597H31.8037V6.10341H32.7025V5.2561Z" fill="white"/>
<path d="M2.87637 4.8584H22.7104C23.3922 4.8584 23.9501 5.38482 23.9501 6.02788V18.1611C23.9501 18.8043 23.3923 19.3306 22.7104 19.3306H2.87637C2.19461 19.3306 1.63672 18.8044 1.63672 18.1611V6.02778C1.63672 5.3845 2.19438 4.8584 2.87637 4.8584Z" fill="#EBECEC"/>
<path d="M5.66602 6.10107H22.8658V17.2109H5.66602V6.10107Z" fill="#21D0C3"/>
<path d="M9.99255 7.98165C10.0029 7.9987 10.0033 8.01993 9.99232 8.03772ZM16.5706 7.98165C16.5806 7.9987 16.581 8.01993 16.5698 8.03772ZM6.24108 8.39271C6.20801 8.39271 6.18164 8.36741 6.18164 8.33696C6.18164 8.30629 6.20823 8.28163 6.24108 8.28163H8.3241L8.70107 7.41814C8.71391 7.39005 8.74812 7.37611 8.77801 7.38812C8.79335 7.3938 8.8046 7.40538 8.81028 7.41878L8.81051 7.41857L9.38533 8.78747L9.89072 7.9809C9.90731 7.9541 9.94357 7.94573 9.97175 7.96128C9.98107 7.96675 9.98811 7.9734 9.99289 7.98165L10.2901 8.41136L10.7149 7.98519C10.7367 7.96267 10.774 7.96225 10.7981 7.98283C10.8024 7.98733 10.8058 7.99141 10.8086 7.99677H10.8094L10.9785 8.28185C12.2867 8.28185 13.5938 8.28185 14.9017 8.28185L15.2793 7.41835C15.2918 7.39026 15.3263 7.37632 15.3562 7.38833C15.3715 7.39401 15.3828 7.40559 15.3883 7.41899L15.3887 7.41878L15.9638 8.78768L16.4689 7.98112C16.4855 7.95431 16.5215 7.94595 16.5496 7.96149C16.5587 7.96696 16.566 7.97361 16.5712 7.98187L16.8682 8.41158L17.2926 7.9854C17.3147 7.96289 17.3521 7.96246 17.3762 7.98304C17.3807 7.98755 17.3839 7.99162 17.387 7.99698H17.3874L17.5571 8.28206H18.6323V8.39367L17.522 8.39389C17.5014 8.39389 17.4814 8.38349 17.4708 8.36505L17.3235 8.1176L16.903 8.53948C16.8997 8.54259 16.8962 8.54559 16.8922 8.54806C16.8646 8.56489 16.828 8.55707 16.8108 8.53123L16.5231 8.11502L16.0057 8.941C15.9992 8.95258 15.9886 8.96158 15.9757 8.9663C15.9455 8.97809 15.9108 8.96373 15.899 8.93467L15.3335 7.58796L14.998 8.35433C14.9905 8.37684 14.9682 8.39303 14.9414 8.39303H13.9705C13.9688 8.39378 13.9662 8.39378 13.964 8.39378H10.9447C10.9235 8.39378 10.9033 8.38338 10.8931 8.36494L10.7462 8.11749L10.3253 8.53938C10.322 8.54249 10.3185 8.54549 10.3143 8.54795C10.2867 8.56479 10.2509 8.55696 10.2328 8.53112L9.94493 8.11492L9.42772 8.94089C9.42125 8.95247 9.41113 8.96148 9.39749 8.96619C9.36726 8.97799 9.33283 8.96362 9.32101 8.93456L8.75528 7.58786L8.42025 8.35422C8.41218 8.37673 8.39025 8.39292 8.36365 8.39292H6.24131H6.24108V8.39271V8.39271Z" fill="#FEFEFE"/>
<path d="M12.483 11.3565C12.4724 11.3731 12.472 11.3942 12.483 11.412ZM17.8214 11.3565C17.8114 11.3731 17.8106 11.3942 17.8219 11.412ZM18.6315 11.6794L18.4287 12.1626L17.9234 11.3556C17.9065 11.3288 17.8707 11.3199 17.8427 11.3357C17.8331 11.3414 17.8261 11.3482 17.8211 11.3565L17.5241 11.786L17.0997 11.3602C17.0773 11.3375 17.0402 11.3361 17.0165 11.3573C17.0117 11.3611 17.0087 11.3659 17.0057 11.3704H17.0049L16.8355 11.656C15.5278 11.656 15.4589 11.6558 14.1513 11.6558L13.7738 10.7927C13.7613 10.7644 13.7267 10.7511 13.6971 10.7627C13.6817 10.7684 13.6705 10.78 13.6646 10.7934L13.0895 12.1628L12.5849 11.3558C12.5679 11.329 12.5321 11.3201 12.5037 11.3359C12.4949 11.3416 12.4873 11.3484 12.4829 11.3567L12.1855 11.7862L11.7615 11.3604C11.7386 11.3377 11.7013 11.3363 11.6775 11.3575C11.6731 11.3613 11.6694 11.3661 11.6664 11.3706L11.4971 11.6562H6.24108C6.20801 11.6562 6.18164 11.6815 6.18164 11.712C6.18164 11.7427 6.20823 11.7677 6.24108 11.7677H11.5317C11.5525 11.7677 11.572 11.7573 11.583 11.7394L11.7301 11.4918L12.151 11.9137C12.1543 11.9168 12.1575 11.9196 12.1616 11.9222C12.1892 11.9391 12.2258 11.9315 12.2433 11.9062L12.5312 11.4894L13.048 12.3158C13.0545 12.327 13.0653 12.3358 13.0786 12.3411C13.1086 12.3523 13.1433 12.338 13.1553 12.3097L13.7208 10.9626L14.0559 11.7287C14.0634 11.7512 14.0859 11.7677 14.1125 11.7677C15.445 11.7677 15.5379 11.768 16.8704 11.768C16.8912 11.768 16.9112 11.7576 16.922 11.7397L17.0693 11.492L17.4903 11.9139C17.493 11.917 17.4971 11.9198 17.5006 11.9225C17.5282 11.9393 17.5642 11.9317 17.5823 11.9064L17.8699 11.4896L18.3874 12.316C18.3936 12.3272 18.404 12.336 18.4174 12.3413C18.4476 12.3525 18.482 12.3382 18.4941 12.3099L18.6315 11.9828V11.6803V11.6794Z" fill="#FEFEFE"/>
<path d="M6.20133 14.5666C6.20565 14.5664 7.77897 14.4572 8.08468 14.5482C8.14332 14.5655 8.19264 14.4999 8.24674 14.4269C8.38562 14.2416 8.54722 14.0267 9.00647 14.3714C9.53117 14.7655 9.87041 15.1012 9.97792 15.2113C10.0994 15.1577 10.4176 15.0071 10.4588 14.8958C10.4933 14.802 10.6359 14.7294 10.815 14.6766C11.0426 14.6086 11.3377 14.5656 11.5209 14.5521C11.6135 14.5456 11.7258 14.493 11.8446 14.4374C12.0984 14.3185 12.374 14.1888 12.6461 14.385C12.8258 14.5155 12.9308 14.7019 13.0242 14.8669C13.1172 15.0324 13.1964 15.1725 13.3101 15.1752C13.4622 15.1795 13.667 15.018 13.855 14.87C13.9816 14.7706 14.1013 14.6765 14.2075 14.6305C14.3772 14.5574 14.6398 14.5513 14.8628 14.5457C14.9926 14.5426 15.1073 14.5396 15.173 14.5249C15.2242 14.5136 15.2572 14.4692 15.2905 14.4254C15.3652 14.3269 15.4386 14.2292 15.6597 14.2787C15.8188 14.3138 16.0095 14.3921 16.1776 14.4895C16.3354 14.5806 16.4758 14.6895 16.5551 14.799C16.5817 14.8351 16.6241 14.8774 16.6771 14.9202C16.7766 14.9995 16.9117 15.0764 17.0521 15.1128C17.1849 15.1477 17.3227 15.1452 17.4374 15.0707C17.467 15.0513 17.4961 15.0268 17.5235 14.9965C17.6992 14.8003 17.8532 14.6804 18.0266 14.6078C18.1994 14.5356 18.3862 14.5123 18.6297 14.5085H18.631V14.6461C18.4065 14.6494 18.2368 14.67 18.0851 14.7335C17.9338 14.7968 17.7957 14.9053 17.6336 15.0852C17.599 15.1249 17.5604 15.1574 17.5201 15.1835C17.3647 15.2847 17.1841 15.2897 17.0134 15.245C16.8503 15.2027 16.6959 15.1147 16.5829 15.0246C16.5203 14.9746 16.4684 14.9226 16.4352 14.8771C16.3678 14.7845 16.2435 14.6886 16.1014 14.6067C15.9456 14.5165 15.7705 14.4446 15.626 14.4122C15.5002 14.3842 15.4547 14.4443 15.4089 14.5044C15.3606 14.5695 15.3115 14.6345 15.2063 14.6583C15.1259 14.6763 15.0034 14.6796 14.8663 14.6832C14.6571 14.6879 14.411 14.6941 14.2672 14.7555C14.1797 14.7931 14.0674 14.8818 13.9484 14.9754C13.7404 15.1393 13.5136 15.3176 13.3056 15.3125C13.1061 15.3073 13.0089 15.1345 12.8947 14.9313C12.8086 14.7784 12.7112 14.6053 12.5569 14.4939C12.3571 14.3497 12.1236 14.46 11.9084 14.5604C11.7774 14.6218 11.6523 14.6807 11.5315 14.6893C11.3561 14.7018 11.0741 14.7432 10.858 14.8075C10.7193 14.8484 10.6126 14.8949 10.5959 14.9402C10.5244 15.1346 9.98928 15.3567 9.98769 15.3573L9.93939 15.3775L9.90382 15.3397C9.90302 15.3386 9.54754 14.9537 8.91532 14.479C8.57654 14.2249 8.46278 14.376 8.3655 14.5061C8.27811 14.6222 8.19969 14.7268 8.03956 14.6789C7.7617 14.5962 6.21565 14.7038 6.21054 14.7042L6.2002 14.5662L6.20133 14.5666Z" fill="#FEFEFE"/>
<path d="M19.0967 8.61304H22.3119V8.74116H19.0967V8.61304Z" fill="#FEFEFE"/>
<path d="M19.0967 7.36108H20.1614V7.4892H19.0967V7.36108Z" fill="#FEFEFE"/>
<path d="M19.0967 7.92749H21.188V8.05561H19.0967V7.92749V7.92749Z" fill="#FEFEFE"/>
<path d="M19.0967 11.7378H22.3119V11.8659H19.0967V11.7378Z" fill="#FEFEFE"/>
<path d="M19.0967 10.4856H20.1614V10.6137H19.0967V10.4856Z" fill="#FEFEFE"/>
<path d="M19.0967 11.0522H21.188V11.1804H19.0967V11.0522V11.0522Z" fill="#FEFEFE"/>
<path d="M19.0967 15.4741H22.3119V15.6022H19.0967V15.4741Z" fill="#FEFEFE"/>
<path d="M19.0967 14.2224H20.1614V14.3505H19.0967V14.2224Z" fill="#FEFEFE"/>
<path d="M19.0967 14.7891H21.188V14.9172H19.0967V14.7891V14.7891Z" fill="#FEFEFE"/>
<path d="M3.13402 7.17798H4.23809C4.5471 7.17798 4.79985 7.41631 4.79985 7.70772V7.70794C4.79985 7.99945 4.54699 8.23768 4.23809 8.23768H3.13402C2.82502 8.23768 2.57227 7.99934 2.57227 7.70794V7.70772C2.57227 7.41631 2.82513 7.17798 3.13402 7.17798Z" fill="#FAD24D"/>
<path d="M3.13402 9.2063H4.23809C4.5471 9.2063 4.79985 9.44464 4.79985 9.73626C4.79985 10.0278 4.54699 10.2662 4.23809 10.2662H3.13402C2.82502 10.2662 2.57227 10.0277 2.57227 9.73626C2.57227 9.44485 2.82513 9.2063 3.13402 9.2063Z" fill="#FF5B62"/>
<path d="M3.13402 11.2346H4.23809C4.5471 11.2346 4.79985 11.4732 4.79985 11.7646C4.79985 12.0561 4.54699 12.2945 4.23809 12.2945H3.13402C2.82502 12.2945 2.57227 12.056 2.57227 11.7646C2.57227 11.4732 2.82513 11.2346 3.13402 11.2346Z" fill="#21D0C3"/>
<path d="M3.69275 13.8562C4.05131 13.8562 4.34179 14.1301 4.34179 14.4685C4.34179 14.8065 4.05142 15.0808 3.69275 15.0808C3.33443 15.0808 3.04395 14.8065 3.04395 14.4685C3.04395 14.1302 3.33431 13.8562 3.69275 13.8562Z" fill="white"/>
<path d="M3.69221 15.8616C3.85177 15.8616 3.9811 15.9836 3.9811 16.1341C3.9811 16.2846 3.85177 16.4066 3.69221 16.4066C3.53265 16.4066 3.40332 16.2846 3.40332 16.1341C3.40321 15.9836 3.53242 15.8616 3.69221 15.8616Z" fill="white"/>
<path d="M15.5642 19.3303H9.27246V19.9066H15.5642V19.3303Z" fill="#EBECEC"/>
<path d="M13.2159 19.9067H11.6211V29.8239H13.2159V19.9067Z" fill="#FEFEFE"/>
</svg>
