<svg width="37" height="38" viewBox="0 0 37 38" fill="none" xmlns="http://www.w3.org/2000/svg">
<path d="M23.4432 37C27.919 37 31.5474 33.0466 31.5474 28.1698C31.5474 23.293 27.919 19.3396 23.4432 19.3396C18.9673 19.3396 15.3389 23.293 15.3389 28.1698C15.3389 33.0466 18.9673 37 23.4432 37Z" fill="#81A4E3" stroke="#314E55" stroke-width="2" stroke-linecap="round" stroke-linejoin="round"/>
<path d="M23.4427 22.0566C20.344 22.0566 17.832 24.7936 17.832 28.1698" stroke="#314E55" stroke-width="2" stroke-linecap="round" stroke-linejoin="round"/>
<path d="M9.10429 18.6604C13.5802 18.6604 17.2086 14.707 17.2086 9.83019C17.2086 4.95341 13.5802 1 9.10429 1C4.62841 1 1 4.95341 1 9.83019C1 14.707 4.62841 18.6604 9.10429 18.6604Z" fill="#F58CAC" stroke="#314E55" stroke-width="2" stroke-linecap="round" stroke-linejoin="round"/>
<path d="M14.7152 9.83025C14.7152 6.45402 12.2032 3.71704 9.10449 3.71704" stroke="#314E55" stroke-width="2" stroke-linecap="round" stroke-linejoin="round"/>
<path d="M29.9883 21.717L35.9106 15.2642" stroke="#314E55" stroke-width="2" stroke-linecap="round" stroke-linejoin="round"/>
<path d="M29.6768 15.2642H35.9108V22.0566" stroke="#314E55" stroke-width="2" stroke-linecap="round" stroke-linejoin="round"/>
<path d="M9.10449 19V27.4906" stroke="#314E55" stroke-width="2" stroke-linecap="round"/>
<path d="M6.29883 24.7737H11.944" stroke="#314E55" stroke-width="2" stroke-linecap="round"/>
</svg>
