<svg width="45" height="47" viewBox="0 0 45 47" fill="none" xmlns="http://www.w3.org/2000/svg">
<path d="M14.8086 46.404H3.18911C1.4306 46.404 0 44.4736 0 42.1009V32.5646C0 20.3487 7.36559 10.4106 16.4194 10.4106C17.2911 10.4106 17.9977 11.3642 17.9977 12.5402V42.1009C17.9977 44.4736 16.5671 46.404 14.8086 46.404Z" fill="#FF5E5B"/>
<path d="M41.8106 46.404H30.1911C28.4325 46.404 27.002 44.4737 27.002 42.1011V12.5402C27.002 11.3641 27.7087 10.4106 28.5803 10.4106C37.634 10.4106 44.9997 20.349 44.9997 32.5646V42.1009C44.9997 44.4736 43.5691 46.404 41.8106 46.404Z" fill="#FF423D"/>
<path d="M37.2693 32.7901L35.3188 30.7991L37.2693 28.8081C38.9356 27.1074 37.0273 23.7141 35.3648 25.4112L32.7024 28.1286L24.0785 19.3263V2.12959C24.0785 0.953441 23.3718 0 22.5002 0C21.6286 0 20.9218 0.95356 20.9218 2.12959V19.3265L12.2979 28.1289L9.63562 25.4115C7.97273 23.714 6.06568 27.1083 7.73112 28.8084L9.68167 30.7993L7.73112 32.7902C6.0648 34.4911 7.97299 37.884 9.63562 36.1871L22.5003 23.0564L35.3649 36.1871C37.0322 37.8888 38.9273 34.4824 37.2693 32.7901Z" fill="#FFC72D"/>
<path d="M37.2692 32.7901L35.3186 30.7991L37.2692 28.8081C38.9354 27.1074 37.0271 23.7141 35.3647 25.4112L32.7023 28.1286L24.0783 19.3263V2.12959C24.0783 0.953441 23.3716 0 22.5 0V23.0562L35.3647 36.187C37.032 37.8888 38.9271 34.4824 37.2692 32.7901Z" fill="#FFBE00"/>
</svg>
