<svg width="45" height="45" viewBox="0 0 45 45" fill="none" xmlns="http://www.w3.org/2000/svg">
<path d="M4.43112 26.3559C6.69875 26.3559 8.18689 28.5172 8.22232 28.6235C8.25775 28.6589 8.25775 28.7298 8.25775 28.7652C7.9743 29.6156 7.868 30.962 8.39948 32.0604C9.60416 34.4697 16.2299 41.4852 25.9382 41.4852C35.8236 41.4852 44.5044 32.4501 44.5044 22.1749C44.5044 14.061 41.5636 9.41948 36.4969 9.41948C36.4614 9.41948 36.426 9.41948 36.3906 9.41948C36.2488 9.41948 36.0717 9.41948 35.8236 9.41948C33.804 9.41948 29.0562 8.85257 28.0641 3.57324L24.4855 4.91965C25.2296 10.4824 30.9695 11.1911 31.0049 11.2265C31.0758 11.2265 31.1467 11.2974 31.1467 11.3682C31.1467 11.4391 31.1467 11.51 31.0758 11.5454C31.0404 11.5454 29.2333 12.7855 29.1625 16.2932C28.9499 28.5881 20.9069 29.5447 18.4267 29.5447C16.0173 29.5447 13.5725 28.8006 11.6946 27.5605C11.4466 27.3834 11.1986 27.2062 10.9151 27.0291C9.35613 25.8952 7.1948 24.3717 4.75001 24.3717C3.33274 24.3717 1.91547 24.9032 0.604492 25.9307L1.73831 27.4188C2.65953 26.7102 3.54533 26.3559 4.43112 26.3559Z" fill="#FF8A65"/>
<path d="M25.9377 42.0168C15.9814 42.0168 9.1785 34.7887 7.93839 32.2731C7.22975 30.8558 7.51321 29.4031 7.69037 28.7653C7.37148 28.3401 6.30853 27.1354 4.85583 26.9229C3.89917 26.7811 2.90708 27.1 1.95042 27.9149C1.87956 27.9858 1.77327 28.0212 1.7024 27.9858C1.59611 27.9858 1.52524 27.9149 1.45438 27.8441L0.0725421 26.0725C-0.0337532 25.9308 -0.0337532 25.7182 0.143406 25.5765C4.7141 21.8561 8.78875 24.797 11.2335 26.5331C11.517 26.7103 11.765 26.9229 11.9776 27.0646C14.5996 28.8362 19.1702 29.8637 22.9969 27.9149C25.4771 26.6394 28.4888 23.5568 28.5951 16.2579C28.6305 13.7068 29.5518 12.2895 30.1895 11.5809C28.5242 11.1557 24.485 9.6676 23.8827 4.84888C23.8472 4.67172 23.9535 4.52999 24.0953 4.45913L27.9928 3.00643C28.0991 2.971 28.2053 2.971 28.3116 3.04186C28.4179 3.11272 28.4534 3.18359 28.4888 3.28988C29.3037 8.42748 33.7327 8.99439 36.3192 8.8881C36.3901 8.8881 36.4255 8.8881 36.4609 8.8881C41.882 8.8881 45 13.7422 45 22.175C45 27.2417 42.945 32.2731 39.3309 36.0642C35.7169 39.8909 30.9336 42.0168 25.9377 42.0168ZM4.43065 26.1788C4.60781 26.1788 4.78496 26.1788 4.99755 26.2142C7.0526 26.5331 8.32814 28.411 8.399 28.5173C8.46986 28.6236 8.46986 28.7299 8.43443 28.8362C8.15098 29.6511 8.04468 30.9266 8.57616 31.9896C9.74541 34.399 16.3357 41.3436 25.9377 41.3436C35.7169 41.3436 44.3268 32.4148 44.3268 22.2104C44.3268 14.2029 41.4568 9.63216 36.4964 9.63216C36.4609 9.63216 36.4255 9.63216 36.3901 9.63216C34.1933 9.73846 29.0557 9.31328 27.9219 3.85679L24.6976 5.06147C25.5125 10.3762 31.0045 11.0494 31.0399 11.0494C31.1816 11.0494 31.3233 11.1912 31.3588 11.3329C31.3942 11.4746 31.3233 11.6163 31.217 11.7226C31.1462 11.7581 29.4455 12.9273 29.3746 16.3288C29.2329 23.982 26.044 27.2417 23.3866 28.6236C19.312 30.7141 14.4578 29.6511 11.6587 27.7378C11.4107 27.5606 11.1627 27.3835 10.8792 27.2063C8.5053 25.5056 4.96212 22.9545 0.922904 26.0016L1.84413 27.2063C2.69449 26.4977 3.54485 26.1788 4.43065 26.1788Z" fill="black"/>
<path d="M42.9093 22.5293C42.6968 22.5293 42.555 22.3876 42.555 22.175C42.555 20.2617 42.555 17.3208 41.3503 15.0178C41.244 14.8406 41.3149 14.628 41.4921 14.5572C41.6692 14.4509 41.8818 14.5217 41.9527 14.6989C43.2282 17.1437 43.2282 20.1554 43.2282 22.175C43.2637 22.3521 43.1219 22.5293 42.9093 22.5293ZM40.3228 12.9627C40.2165 12.9627 40.1457 12.9273 40.0748 12.8564C39.1536 11.8643 37.9489 11.3683 36.4962 11.3683H36.4608C36.2836 11.3683 36.1064 11.2266 36.1064 11.014C36.1064 10.8014 36.2482 10.6597 36.4608 10.6597H36.5316C38.1969 10.6597 39.5788 11.2266 40.6417 12.3958C40.7834 12.5375 40.7834 12.7501 40.6417 12.8919C40.5 12.9273 40.4291 12.9627 40.3228 12.9627Z" fill="black"/>
</svg>
