<svg width="46" height="47" viewBox="0 0 46 47" fill="none" xmlns="http://www.w3.org/2000/svg">
<path d="M43.8207 34.5227C42.9673 33.6321 41.7201 33.1703 40.1103 33.1496L32.5192 33.1212C32.4624 33.0739 32.4033 33.0297 32.3434 32.9869L23.4249 10.7287C24.3141 10.4793 25.1282 10.0279 25.7992 9.40468C26.895 8.3891 27.5096 7.02668 27.5296 5.56852C27.5496 4.11148 26.9727 2.73356 25.9049 1.68924C24.8203 0.62781 23.3669 0.0416381 21.812 0.0388581C20.3085 0.03617 18.8866 0.585275 17.8087 1.58567C16.1745 3.10404 15.6518 5.40436 16.4462 7.41748C16.4508 7.44199 16.4504 7.46611 16.4605 7.49026L24.1587 25.8071L9.69473 11.6512C9.66907 11.6259 9.63793 11.6106 9.60719 11.5942C8.55588 10.6862 7.21409 10.1833 5.78188 10.1808C4.278 10.1781 2.85654 10.7268 1.77865 11.7268C-0.482076 13.8269 -0.529184 17.2886 1.67375 19.4434C2.75752 20.5048 4.21096 21.091 5.76548 21.0938C7.26936 21.0965 8.69082 20.5474 9.76832 19.547C9.86975 19.4532 9.96807 19.3554 10.0613 19.255L27.7929 36.609C27.8387 36.6959 27.8896 36.781 27.9452 36.8643C28.1103 37.1122 28.3136 37.3264 28.5404 37.5117C28.5466 37.5161 28.5493 37.5224 28.5556 37.5265L28.5797 37.5422C28.7298 37.6601 28.8878 37.7684 29.0579 37.8571L42.06 46.4149C42.1258 46.4581 42.2005 46.4794 42.2761 46.4795C42.3781 46.4797 42.4795 46.4409 42.5544 46.3653C42.6832 46.2345 42.6932 46.0333 42.5774 45.8924L36.3029 38.2249L44.6278 38.2354C44.8272 38.2354 44.9934 38.0894 45.0085 37.9001C45.0137 37.8192 45.1509 35.9109 43.8207 34.5227ZM18.4883 7.21881C18.4836 7.20803 18.479 7.19689 18.4739 7.18574C18.4809 7.19875 18.4887 7.21175 18.4965 7.22439L18.4883 7.21881ZM19.6311 7.4744C18.4641 6.33227 18.489 4.49807 19.6874 3.38578C20.2582 2.85557 21.0116 2.56439 21.8085 2.56581C22.6319 2.56728 23.4026 2.8779 23.9774 3.44059C24.5428 3.99437 24.8485 4.72438 24.8382 5.49652C24.8276 6.26903 24.5019 6.99049 23.921 7.52885C23.3499 8.05905 22.5969 8.35024 21.7999 8.34881C20.9761 8.34734 20.2058 8.03673 19.6311 7.4744ZM7.89054 17.6708C7.3198 18.201 6.56639 18.4922 5.76985 18.4907C4.94605 18.4893 4.17574 18.1786 3.60099 17.6159C2.434 16.4738 2.4589 14.6392 3.65733 13.527C4.22807 12.9971 4.98148 12.7059 5.77841 12.7074C6.60182 12.7088 7.37292 13.0198 7.94727 13.5821C8.51269 14.1355 8.818 14.8656 8.80774 15.6381C8.79671 16.4106 8.47103 17.1324 7.89054 17.6708Z" fill="#81A4E3"/>
</svg>
