<svg width="40" height="45" viewBox="0 0 40 45" fill="none" xmlns="http://www.w3.org/2000/svg">
<path d="M34.375 7.73438H22.75L20.125 13.6406H5.5V37.2656H37V7.73438H34.375ZM34.375 13.6406H24.125L25.5 10.6875H34.375V13.6406Z" fill="#5C4300"/>
<path d="M29.7829 28.7636L31.6579 26.6542C32.3333 26.9552 33.0556 27.1003 33.7818 27.081C34.508 27.0617 35.2234 26.8783 35.8854 26.5417C35.9613 26.5028 36.0277 26.4439 36.079 26.3698C36.1302 26.2958 36.1648 26.2089 36.1796 26.1165C36.1945 26.0242 36.1892 25.9292 36.1643 25.8396C36.1394 25.7501 36.0956 25.6687 36.0366 25.6023L32.6879 21.835C32.591 21.7262 32.5142 21.5969 32.4617 21.4547C32.4093 21.3125 32.3823 21.16 32.3823 21.006C32.3823 20.852 32.4093 20.6995 32.4617 20.5573C32.5142 20.415 32.591 20.2858 32.6879 20.177L36.0329 16.4139C36.0926 16.3477 36.1371 16.2662 36.1626 16.1764C36.1882 16.0866 36.194 15.9912 36.1797 15.8983C36.1653 15.8054 36.1311 15.7178 36.0801 15.6431C36.0291 15.5683 35.9627 15.5085 35.8866 15.4689C34.9153 14.9742 33.8355 14.8141 32.7834 15.0088C31.7313 15.2034 30.754 15.7441 29.9746 16.5627C29.1952 17.3813 28.6487 18.4411 28.4039 19.6086C28.1592 20.7761 28.2271 21.999 28.5991 23.1231L26.6816 25.2803L29.7829 28.7636Z" fill="#D08B00"/>
<path d="M26.1902 25.8272L23.5915 22.9036L20.4902 26.3925L23.089 29.3161L26.1902 32.805L35.6902 43.4925C35.8206 43.639 35.9973 43.7213 36.1815 43.7213C36.3657 43.7213 36.5424 43.639 36.6727 43.4925L38.7915 41.1089C38.9217 40.9623 38.9949 40.7635 38.9949 40.5562C38.9949 40.349 38.9217 40.1502 38.7915 40.0036L29.2915 29.3161L26.1902 25.8272Z" fill="#D08B00"/>
<path d="M37.4448 18.3768L34.6673 21.5015C34.5608 21.6215 34.501 21.7841 34.501 21.9536C34.501 22.1232 34.5608 22.2858 34.6673 22.4057L36.8085 24.8146C36.8648 24.8784 36.9325 24.928 37.007 24.9603C37.0816 24.9925 37.1613 25.0068 37.2411 25.002C37.3208 24.9972 37.3988 24.9735 37.4699 24.9325C37.541 24.8915 37.6035 24.8341 37.6535 24.764C38.2595 23.9005 38.6459 22.8681 38.7716 21.777C38.8973 20.6859 38.7576 19.5769 38.3673 18.5681C38.3299 18.4729 38.2725 18.3895 38.1999 18.325C38.1274 18.2605 38.0419 18.2169 37.951 18.1981C37.86 18.1792 37.7664 18.1857 37.6782 18.2168C37.5899 18.248 37.5098 18.3029 37.4448 18.3768V18.3768Z" fill="#D08B00"/>
<path d="M16.1751 33.1875L19.5238 36.9548C19.6207 37.0636 19.6975 37.1928 19.75 37.3351C19.8024 37.4773 19.8294 37.6298 19.8294 37.7838C19.8294 37.9378 19.8024 38.0903 19.75 38.2325C19.6975 38.3748 19.6207 38.504 19.5238 38.6128L16.1788 42.3759C16.1194 42.4426 16.0752 42.5245 16.0501 42.6147C16.025 42.7048 16.0197 42.8005 16.0347 42.8934C16.0497 42.9864 16.0845 43.0738 16.1362 43.1483C16.1879 43.2227 16.2548 43.282 16.3313 43.3209C17.301 43.8143 18.3786 43.9744 19.4289 43.7811C20.4792 43.5878 21.4552 43.0496 22.2345 42.2342C23.0138 41.4188 23.5615 40.3626 23.8089 39.1981C24.0563 38.0336 23.9924 36.8129 23.6251 35.6892L25.6963 33.359L22.5951 29.8701L20.5751 32.144C19.897 31.8382 19.171 31.6897 18.4406 31.7076C17.7103 31.7255 16.9907 31.9093 16.3251 32.2481C16.2492 32.2871 16.1829 32.3462 16.1318 32.4203C16.0807 32.4944 16.0463 32.5813 16.0316 32.6736C16.0168 32.7659 16.0222 32.8609 16.0472 32.9504C16.0722 33.0399 16.116 33.1212 16.1751 33.1875V33.1875Z" fill="#D08B00"/>
<path d="M14.5633 34.0804C13.9573 34.9439 13.5709 35.9762 13.4452 37.0674C13.3195 38.1585 13.4593 39.2675 13.8496 40.2763C13.887 40.3712 13.9444 40.4544 14.0169 40.5187C14.0893 40.583 14.1746 40.6265 14.2654 40.6453C14.3561 40.6641 14.4496 40.6578 14.5377 40.6268C14.6257 40.5959 14.7058 40.5412 14.7708 40.4676L17.5483 37.3429C17.6548 37.2229 17.7146 37.0603 17.7146 36.8908C17.7146 36.7212 17.6548 36.5586 17.5483 36.4387L15.4083 34.0312C15.3521 33.9674 15.2845 33.9176 15.21 33.8852C15.1355 33.8528 15.0558 33.8385 14.9761 33.8431C14.8963 33.8478 14.8183 33.8713 14.7472 33.9122C14.6761 33.9531 14.6134 34.0104 14.5633 34.0804V34.0804Z" fill="#D08B00"/>
<path d="M16.1538 28.8112C16.3134 28.9908 16.5299 29.0917 16.7556 29.0917C16.9814 29.0917 17.1979 28.9908 17.3575 28.8112L17.5175 28.6312C17.6771 28.4516 17.7668 28.2081 17.7668 27.9541C17.7668 27.7002 17.6771 27.4566 17.5175 27.277L17.1963 26.9156L17.8288 26.204L14.8588 22.8628L14.2263 23.5744L13.905 23.2129C13.7454 23.0334 13.5289 22.9325 13.3031 22.9325C13.0774 22.9325 12.8609 23.0334 12.7013 23.2129L12.5413 23.393C12.3817 23.5725 12.292 23.8161 12.292 24.0701C12.292 24.324 12.3817 24.5676 12.5413 24.7472L16.1538 28.8112Z" fill="#D08B00"/>
<path d="M20.75 16.4362L23.6838 19.7366C27.065 17.2054 28.9562 19.3274 26.3562 16.4038C24.5562 14.3802 22.285 15.3365 20.75 16.4362Z" fill="#D08B00"/>
<path d="M19.8458 16.5278C19.6862 16.3482 19.4697 16.2473 19.2439 16.2473C19.0182 16.2473 18.8017 16.3482 18.642 16.5278L15.0295 20.5918C14.8699 20.7714 14.7803 21.015 14.7803 21.2689C14.7803 21.5229 14.8699 21.7664 15.0295 21.946L15.3508 22.3074L18.3208 25.6487L18.642 26.0101C18.7854 26.1713 18.9753 26.2697 19.1774 26.2874C19.3795 26.3052 19.5806 26.2413 19.7445 26.1071C19.7805 26.0778 19.8143 26.0453 19.8458 26.0101L19.9995 25.8399L23.1008 22.351L23.3508 22.0698L23.4645 21.9418C23.6242 21.7622 23.7138 21.5187 23.7138 21.2647C23.7138 21.0107 23.6242 20.7672 23.4645 20.5876L23.1146 20.1938L20.1695 16.8807L19.8458 16.5278Z" fill="#D08B00"/>
</svg>
