<svg width="60" height="56" viewBox="0 0 60 56" fill="none" xmlns="http://www.w3.org/2000/svg">
<g clip-path="url(#clip0_64_2658)">
<path d="M18.7499 38.5001H41.2498C46.4276 38.5001 50.6248 42.4174 50.6248 47.25V54.25C50.6248 55.2169 49.7857 56 48.7498 56H11.25C10.2141 56 9.375 55.2169 9.375 54.25V47.25C9.375 42.4174 13.5722 38.5001 18.7499 38.5001Z" fill="#3689C9"/>
<path d="M35.4936 33.2501H24.5062C23.2518 33.251 22.08 32.6665 21.3843 31.6926L17.5031 26.2502C17.0944 25.677 16.8759 25.0051 16.875 24.3164V14.0002C16.875 8.20165 21.9122 3.50031 28.1249 3.50031H31.8749C38.0877 3.50031 43.1248 8.20165 43.1248 14.0002V24.3164C43.1239 25.0051 42.9055 25.677 42.4967 26.2502L38.6155 31.6839C37.9217 32.6613 36.7499 33.2493 35.4936 33.2501Z" fill="#EFC9AE"/>
<path d="M43.125 21.8752C44.1605 21.8752 45 20.7 45 19.2502C45 17.8005 44.1605 16.6252 43.125 16.6252C42.0895 16.6252 41.25 17.8005 41.25 19.2502C41.25 20.7 42.0895 21.8752 43.125 21.8752Z" fill="#E2B698"/>
<path d="M16.875 21.8752C17.9105 21.8752 18.75 20.7 18.75 19.2502C18.75 17.8005 17.9105 16.6252 16.875 16.6252C15.8395 16.6252 15 17.8005 15 19.2502C15 20.7 15.8395 21.8752 16.875 21.8752Z" fill="#EFC9AE"/>
<path d="M40.3124 13.1252C40.3124 13.1252 25.9781 14.0002 20.625 14.0002C20.1 14.0002 19.6875 12.2502 19.6875 12.2502H40.3124V13.1252Z" fill="#E2B698"/>
<path d="M41.2499 17.5002V24.2552C41.2396 24.9718 40.9949 25.6683 40.5468 26.2502L37.125 30.7651C36.779 31.2193 36.2222 31.4923 35.625 31.5001H31.875C30.8391 31.5001 30 32.2833 30 33.2501H35.4937C36.7481 33.251 37.92 32.6665 38.6156 31.6926L42.4968 26.2502C42.9055 25.677 43.124 25.005 43.1249 24.3164V17.5002H41.2499Z" fill="#E2B698"/>
<path d="M18.75 2.26675V1.7505C18.7491 0.78363 17.9091 0.00138404 16.8732 0.00225903C16.6228 0.00225903 16.3744 0.0495088 16.1438 0.140508C13.7101 1.26838 12.1763 3.58974 12.1876 6.12547C12.1866 8.83446 14.0935 11.2223 16.875 11.9967V18.3754C18.946 18.3754 20.625 16.8083 20.625 14.8754V13.1254C20.625 12.6424 21.045 12.2504 21.5625 12.2504H38.4374C38.9549 12.2504 39.3749 12.6424 39.3749 13.1254V14.8754C39.3749 16.8083 41.054 18.3754 43.1249 18.3754V10.5004C43.1249 6.63472 39.7668 3.50049 35.6249 3.50049H19.6875C19.1156 3.32986 18.7341 2.82674 18.75 2.26675Z" fill="#C97629"/>
<path d="M13.1251 7.51655C13.1129 4.98081 14.6475 2.65945 17.0813 1.53158C17.6241 1.31984 18.2419 1.35921 18.75 1.63658C18.6825 0.672339 17.791 -0.0591561 16.7569 0.00384348C16.546 0.0169684 16.3379 0.0624681 16.1438 0.140343C13.7101 1.26821 12.1763 3.58957 12.1876 6.12531C12.1904 7.56117 12.7379 8.95067 13.7344 10.0453C13.3388 9.25341 13.1307 8.39067 13.1251 7.51655Z" fill="#DA8C36"/>
<path d="M35.625 3.50031H33.75C37.8919 3.50031 41.25 6.63454 41.25 10.5003V16.5377C41.2293 17.5265 42.0656 18.3463 43.1249 18.3752V10.5003C43.1249 6.63454 39.7668 3.50031 35.625 3.50031Z" fill="#B06328"/>
<path d="M16.875 11.9965V18.3752C18.9459 18.3752 20.625 16.8081 20.625 14.8753V13.1253C20.625 12.6423 21.045 12.2503 21.5625 12.2503H18.75C18.1144 12.2634 17.4806 12.1776 16.875 11.9965Z" fill="#C97629"/>
<path d="M16.875 11.9965C16.875 13.1034 17.8359 14.0003 19.0219 14.0003H20.625V13.1253C20.625 12.6423 21.045 12.2503 21.5625 12.2503H18.75C18.1144 12.2634 17.4806 12.1776 16.875 11.9965Z" fill="#B06328"/>
<path d="M25.3125 21.0002C26.348 21.0002 27.1875 20.2167 27.1875 19.2502C27.1875 18.2837 26.348 17.5002 25.3125 17.5002C24.277 17.5002 23.4375 18.2837 23.4375 19.2502C23.4375 20.2167 24.277 21.0002 25.3125 21.0002Z" fill="#123247"/>
<path d="M34.6875 21.0002C35.723 21.0002 36.5625 20.2167 36.5625 19.2502C36.5625 18.2837 35.723 17.5002 34.6875 17.5002C33.652 17.5002 32.8125 18.2837 32.8125 19.2502C32.8125 20.2167 33.652 21.0002 34.6875 21.0002Z" fill="#123247"/>
<path d="M37.5 23.6252C38.0178 23.6252 38.4375 23.2335 38.4375 22.7502C38.4375 22.267 38.0178 21.8752 37.5 21.8752C36.9822 21.8752 36.5625 22.267 36.5625 22.7502C36.5625 23.2335 36.9822 23.6252 37.5 23.6252Z" fill="#F9AA8F"/>
<path d="M22.5 23.6252C23.0178 23.6252 23.4375 23.2335 23.4375 22.7502C23.4375 22.267 23.0178 21.8752 22.5 21.8752C21.9822 21.8752 21.5625 22.267 21.5625 22.7502C21.5625 23.2335 21.9822 23.6252 22.5 23.6252Z" fill="#F9AA8F"/>
<path d="M34.2187 19.2502C34.4776 19.2502 34.6875 19.0543 34.6875 18.8127C34.6875 18.5711 34.4776 18.3752 34.2187 18.3752C33.9599 18.3752 33.75 18.5711 33.75 18.8127C33.75 19.0543 33.9599 19.2502 34.2187 19.2502Z" fill="#E2E5E7"/>
<path d="M24.8437 19.2502C25.1026 19.2502 25.3125 19.0543 25.3125 18.8127C25.3125 18.5711 25.1026 18.3752 24.8437 18.3752C24.5849 18.3752 24.375 18.5711 24.375 18.8127C24.375 19.0543 24.5849 19.2502 24.8437 19.2502Z" fill="#E2E5E7"/>
<path d="M34.5464 24.8064C34.4001 24.6139 34.162 24.4993 33.9089 24.5002H26.0902C25.6608 24.4766 25.2924 24.7819 25.2671 25.1818C25.2605 25.2798 25.2764 25.3787 25.3121 25.4714C25.9327 27.4253 27.8171 28.7947 29.9995 28.8752C32.182 28.7947 34.0664 27.4253 34.687 25.4714C34.7611 25.2422 34.7086 24.9928 34.5464 24.8064Z" fill="#123247"/>
<path d="M32.4 27.1252C31.0312 25.9973 28.9781 25.9973 27.6094 27.1252C28.9462 28.3292 31.0631 28.3292 32.4 27.1252Z" fill="#F04B4D"/>
<path d="M30.0008 42.5338C30.9055 42.533 31.7961 42.3291 32.5977 41.9388L38.4383 39.3751C38.697 39.3217 38.8611 39.0829 38.8039 38.8414C38.7467 38.5999 38.4908 38.4467 38.232 38.5001H22.5009C22.2421 38.4992 22.0312 38.6935 22.0293 38.935C22.0284 39.0969 22.1231 39.2456 22.2759 39.3226L27.4321 41.9476C28.2261 42.3308 29.1074 42.5321 30.0008 42.5338Z" fill="#1470B8"/>
<path d="M35.6249 38.5001L31.7343 40.3901C30.6496 40.916 29.3597 40.916 28.275 40.3901L24.375 38.5001V33.2501H35.6249V38.5001Z" fill="#EFC9AE"/>
<path d="M24.375 33.2501C24.375 34.217 25.2141 35.0001 26.25 35.0001H31.875C32.3925 35.0001 32.8125 35.3921 32.8125 35.8751V39.8651L35.6249 38.5001V33.2501H24.375Z" fill="#E2B698"/>
<path d="M46.8748 50.75V51.625C46.8748 52.108 46.4548 52.5 45.9373 52.5H15C12.9291 52.5 11.25 54.0671 11.25 56H48.7498C49.7857 56 50.6248 55.2169 50.6248 54.25V47.2501C48.5538 47.2501 46.8748 48.8172 46.8748 50.75Z" fill="#1470B8"/>
<path d="M29.0625 21.8752H30.9375C31.455 21.8752 31.875 22.2672 31.875 22.7502C31.875 23.2332 31.455 23.6252 30.9375 23.6252H29.0625C28.545 23.6252 28.125 23.2332 28.125 22.7502C28.125 22.2672 28.545 21.8752 29.0625 21.8752Z" fill="#E2B698"/>
</g>
<defs>
<clipPath id="clip0_64_2658">
<rect width="60" height="56" fill="white"/>
</clipPath>
</defs>
</svg>
